<svg width="240" height="324" fill="none" xmlns="http://www.w3.org/2000/svg">
    <style>
        @media (prefers-color-scheme: dark) {
            .a {
                fill: #f0f0f0
            }
        }
    </style>
    <path fill-rule="evenodd" clip-rule="evenodd"
        d="M47.465 286.051c27.6 4.194 55.702 4.405 83.533 2.882 11.014-.825 22.062-.973 33.067.081 6.503.484 35.016 2.665 37.346-3.162-1.467-31.027-4.436-62.319-13.546-92.159-3.746-10.596-6.964-19.39-14.276-28.158-2.305-2.394-7.274-7.415-10.122-9.053-2.467-1.418-3.498-.912-4.915-3.308-1.408-2.647-2.446-7.067-4.445-8.934-2.035-1.902-5.051-1.222-8.79-.609.687-9.285-3.597-11.65-9.499-13.415-10.374-3.961-20.62-1.971-23.231 10.663-4.841 0-7.561 2.084-10.501 4.087-1.202.818-.366 2.904-1.801 3.547-2.656.946-7.35.715-9.907 1.879-11.629 5.294-21.986 12.972-28.788 24.184-15.25 23.939-25.725 74.366-23.912 102.739-.794 1.246.304 3.033.583 4.372.352 1.166 1.493 1.941 2.684 1.808 1.662 1.788 4.233 2.186 6.52 2.556Z"
        fill="#fff" />
    <path fill-rule="evenodd" clip-rule="evenodd"
        d="M161.709 155.78c-.169-.094-.02-.336.15-.256 8.186 3.841 14.465 10.581 18.884 18.368 4.575 8.063 7.183 17.218 9.431 26.166l.081.324c2.397 9.572 4.435 19.243 6.271 28.937 1.858 9.818 3.35 19.696 4.55 29.615a402.293 402.293 0 0 1 1.536 14.74c.206 2.461.393 4.923.562 7.386.067.985.13 1.97.184 2.956l.039.739c.034.671.114 1.344-.052 2.005-.143.571-.445 1.087-.71 1.611-.526 1.035-1.965.865-2.531 0l-.165-.252c-.375-.58-.687-1.119-.805-1.842-.114-.699-.118-1.432-.169-2.138-.094-1.3-.174-2.6-.265-3.9a489.036 489.036 0 0 0-.645-8.205c-.472-5.395-.977-10.785-1.598-16.165a521.36 521.36 0 0 0-4.12-28.583c-1.595-9.266-3.611-18.438-5.714-27.598l-.217-.948c-3.683-15.994-9.358-34.413-24.697-42.96Zm-87.187 62.628c.06-.16.319-.197.363 0 .551 2.484.606 5.042.69 7.584.083 2.509.08 5.028.043 7.538-.135 9.224-.388 18.44-.607 27.663-.11 4.613-.212 9.227-.29 13.84-.03 1.731-.055 3.461-.076 5.192l-.026 2.282c-.012 1.009-.039 2.006-.162 3.014-.081.663-.254 1.295-.62 1.864-.26.403-.63.608-.99.882l-.068.052c-.46.364-.944.367-1.4 0l-.133-.104c-.435-.341-.811-.607-1.089-1.146-.387-.748-.448-1.562-.514-2.387-.1-1.251-.034-2.521-.02-3.776.025-2.517.06-5.033.104-7.55.162-9.23.482-18.462 1.066-27.675.275-4.34.648-8.694 1.148-13.016l.095-.81c.152-1.272.29-2.566.446-3.865a28.435 28.435 0 0 1-6.118-5.879c-.128-.166.083-.398.238-.238 1.783 1.847 3.827 3.319 6.09 4.476.37-2.718.88-5.421 1.83-7.941Zm38.884-82.276c.032-.024.082-.035.112 0 .501.584.399 1.476.415 2.215l.002.069c.036 1.081.043 2.159.039 3.241l-.011 3.443c-.001.473-.04.966-.016 1.442l.013.185c.263.269.385.658.296 1.049a1.484 1.484 0 0 1-.66 1.182l.819 1.163.82 1.162c1.69 2.397 3.398 4.774 5.179 7.106a97.243 97.243 0 0 0 5.779 6.865c.99 1.075 1.997 2.135 3.028 3.171.419.421.848.832 1.272 1.247l.423.417c.249.25.563.497.729.813.097.187.119.647.154.723.313.687-.22 1.784-1.107 1.441l.04-.027c.162-.112.058-.114-.31-.005a1.408 1.408 0 0 1-.654-.16l-.061-.033c-.286-.146-.542-.428-.775-.654l-.058-.055c-.533-.499-1.04-1.029-1.551-1.55a90.28 90.28 0 0 1-3.115-3.343 104.996 104.996 0 0 1-5.723-7.092c-1.839-2.489-3.549-5.106-5.019-7.83a54.94 54.94 0 0 1-1.56-3.154c-.955-.306-1.176-1.322-1.11-2.466-.352-.82-.669-1.658-.857-2.513-.025-.118.125-.228.216-.126.305.347.587.717.859 1.096.164-.802.372-1.54.469-2.011l.423-2.077c-2.384-.125-4.997.855-6.641 2.571-.088.447-.432.767-.767 1.184a7.266 7.266 0 0 0-.966 1.574c-.553 1.242-.241 3.072-1.313 3.983a1.065 1.065 0 0 1-.365.202c.508 2.495.277 5.245.266 7.777v.223c.003 2.833-.092 5.669-.202 8.5l-.111 2.802c-.144 3.738-.238 7.476.125 11.193a83.752 83.752 0 0 1 8.709-6.745l.984-.658c1.179-.79 2.386-1.604 3.677-2.17 1.688-.741 3.293-.486 4.923.273 1.623.757 3.197 1.635 4.789 2.455 1.619.834 3.242 1.66 4.863 2.489 1.074.549 2.648 1.045 3.436 2.055a9.02 9.02 0 0 1 .177-.668 1.475 1.475 0 0 1 .142-1.054c2.647-4.866 5.097-9.848 7.529-14.824 1.231-2.518 2.401-5.066 3.635-7.583l1.199-2.451c.2-.409.401-.817.603-1.224.303-.61.618-1.214.923-1.823.13-.257.292-.512.418-.772l.059-.13c.003-.006.294-.92.069-.833l-.019.009c-.115.065-.206-.079-.132-.171.317-.393.759-.045.94.318.499 1-.415 2.57-.767 3.527l-.019.054c-1.091 3.089-2.327 6.121-3.593 9.142-2.427 5.793-5.034 11.496-7.636 17.21l-.031.098c.555-.425 1.147-.811 1.655-1.187 1.279-.949 2.596-1.85 3.911-2.749 2.412-1.648 4.888-3.187 7.406-4.666l.504-.295c1.258-.733 2.504-1.327 3.997-1.107 1.387.204 2.676.949 3.929 1.555l.129.062 3.872 1.841a155.875 155.875 0 0 0-1.33-4.931 179.055 179.055 0 0 0-6.28-18.204l-.349-.864c-.474-1.184-.945-2.476-2.299-2.84-1.354-.365-2.906.176-4.142-.596-.113-.07-.099-.255.037-.29l.764-.192c1.432-.357 3.112-.715 4.467-.368 1.475.377 2.694 1.615 3.41 2.902.795 1.432 1.356 3.034 1.959 4.56l.096.241a175.45 175.45 0 0 1 1.997 5.214 176.302 176.302 0 0 1 3.486 10.603c.506 1.721.986 3.45 1.448 5.182.132.499.351 1.103.531 1.733.206.201.4.425.583.681.303.424.086.921-.291 1.174-.015.434-.111.842-.341 1.192-.899 1.365-3.276 1.013-3.179-.822.014-.281.124-.549.289-.776l-.004-.037-.019-.067c-.413-.198-.827-.418-1.264-.634l-4.063-2.008c-1.177-.582-2.481-1.481-3.79-1.703-1.22-.206-2.507.703-3.555 1.252l-.068.035a397.218 397.218 0 0 0-7.555 3.995c-1.223.661-2.43 1.349-3.649 2.018-1.018.559-2.118 1.362-3.263 1.678-.489.38-1.07.329-1.537.041.214 1.322.2 2.679.266 4.031.088 1.807.102 3.619.131 5.428l.011.678c.077 4 .118 8.001.134 12.002.054 14.247-.104 28.498-.14 42.745-.019 7.158-.161 14.322-.347 21.477-.078 3.032-.243 6.06-.421 9.088l-.098 1.651c-.207 3.484-.33 7.007-.975 10.444-.084.448-.842.459-.916 0-.594-3.683-.627-7.447-.741-11.173l-.024-.745a318.066 318.066 0 0 1-.188-12.002c.05-14.253.421-28.496.724-42.745.152-7.158.255-14.32.491-21.477.118-3.581.252-7.159.411-10.739.071-1.598.14-3.195.246-4.79l.048-.684c.032-.446.059-.887.091-1.324-1.441.527-2.759-.448-4.056-1.115-1.495-.77-2.988-1.54-4.484-2.308l-1.496-.766-2.995-1.528c-1.348-.689-2.387-1.374-3.825-.566-5.181 2.907-9.942 6.776-14.256 10.836-.827.779-2.576.57-2.785-.735-.895-5.575-.351-11.23.106-16.821l.168-2.076c.205-2.48.427-4.959.723-7.428.133-1.105.265-2.209.411-3.311l.112-.827c.183-1.307.302-2.606.691-3.859a.898.898 0 0 1-.346-.205c-1.17-1.11-.606-3.037-.072-4.358.527-1.304 1.331-2.442 2.337-3.421.22-.214.529-.352.84-.359 2.441-1.618 5.119-2.425 7.905-1.542.079-.374.159-.748.243-1.121l.085-.373c.217-.925.297-2.453 1.095-3.072Zm25.015 146.09a2.218 2.218 0 0 1 2.142.566c.555.555.775 1.385.566 2.142a2.205 2.205 0 0 1-1.458 1.515l-.079.023-.124.052c-.38.102-.76.102-1.139 0a2.153 2.153 0 0 1-1.497-1.497 2.162 2.162 0 0 1 0-1.14l.052-.123a2.205 2.205 0 0 1 1.537-1.538Zm44.973-75.503c.124-.143.326.04.249.192-1.18 2.314-2.495 4.611-3.787 6.866.103.625.206 1.245.324 1.849.503 2.576 1.12 5.105 1.522 7.705 1.445 9.345 2.195 18.793 2.839 28.222.646 9.464.728 18.931.825 28.413.009.822-.623 1.777-1.47 1.932-.387.071-.678.057-1.064 0-.882-.13-1.433-1.14-1.471-1.932a593.56 593.56 0 0 0-.986-15.883c-.698-9.381-1.125-18.786-1.688-28.176l-.199-3.282c-.213-3.556-.408-7.115-.472-10.676-.042-2.36.084-4.719.007-7.075-.072-2.176-.292-4.542.187-6.68.018-.08.144-.1.181-.023.499 1.049.814 2.191 1.058 3.356 1.285-1.626 2.593-3.255 3.945-4.808Zm-84.169-57.476c.18-.013.174.258 0 .278-2.521.293-4.957 1.319-7.338 2.192l-.204.074c-2.406.873-4.75 1.889-7.008 3.099-4.413 2.366-8.465 5.417-12.047 8.91-14.304 13.943-20.823 34.05-25.6 52.945-2.654 10.498-4.54 21.173-5.764 31.931a241.114 241.114 0 0 0-1.523 24.238 311.918 311.918 0 0 0-.021 4.217c0 .644.116 1.455-.056 2.08-.16.58-.61 1.09-.944 1.572-.395.573-1.104.543-1.505 0l-.147-.197c-.427-.567-.845-1.108-.906-1.849-.065-.794-.02-1.612-.022-2.409-.007-1.607.013-3.214.045-4.82.062-3.078.183-6.155.363-9.229.366-6.238.969-12.464 1.831-18.653 1.533-11 3.83-21.896 6.84-32.587 2.84-10.086 6.204-20.141 10.996-29.483 4.449-8.674 10.286-16.743 17.988-22.805 3.581-2.819 7.48-5.168 11.684-6.938 2.12-.892 4.346-1.621 6.61-2.036 2.24-.411 4.469-.353 6.728-.53Zm39.631 115.152c.399-.003.845.085 1.189.306l.458.355c.124.159.248.319.371.48.287.374.325.978.265 1.424a1.668 1.668 0 0 1-.265.83l-.349.452c-.336.274-.615.469-1.022.601a1.688 1.688 0 0 1-.62.072l-.068-.004.041.005-.072-.008a2.777 2.777 0 0 1-.2-.022c-.045-.005-.091-.009-.136-.015a.706.706 0 0 0-.13-.001c-.517.048-1.036-.245-1.402-.581-.33-.303-.627-.946-.581-1.402l.02-.191a2.19 2.19 0 0 1 .199-.771c.133-.314.317-.591.569-.825a2.53 2.53 0 0 1 1.733-.705Zm-1.599-23.52c.686-.747 1.863-.802 2.712-.35.207.11.398.287.58.435.46.372.641 1.043.666 1.608.025.559-.269 1.223-.666 1.609l-.096.093c-.237.231-.576.431-.907.492-.535.098-.983.095-1.481-.115a2.261 2.261 0 0 1-1.046-.864l-.041-.067a1.153 1.153 0 0 1-.049-.084l-.022-.043c-.476-.916-.348-1.953.35-2.714Zm.355-23.643c.309-.097.618-.111.927-.042.21.001.406.054.587.159.197.055.368.155.513.299.174.103.314.242.417.417.205.225.344.488.416.791l.083.618-.083.618-.234.556-.195.252a1.182 1.182 0 0 1-.418.419 1.158 1.158 0 0 1-.391.256 2.176 2.176 0 0 1-1.82.323 2.14 2.14 0 0 1-1.501-1.501l-.042-.291c-.055-.39-.063-.606.047-1.102.049-.219.189-.526.263-.656.314-.552.828-.931 1.431-1.116Zm26.838-17.01c.888-.007 1.775-.005 2.662.005l.666.009c1.114.017 2.069-.098 2.945.676.636.561.356 1.503-.248 1.926-.914.64-2.062.318-3.113.248a159.48 159.48 0 0 0-9.779-.353 314.57 314.57 0 0 0-6.443.046c-2.184.035-4.458.239-6.63.013-.298-.032-.365-.424-.071-.526 2.047-.708 4.349-.938 6.494-1.209a98.038 98.038 0 0 1 6.65-.605c2.287-.132 4.577-.214 6.867-.23Zm-26.842-6.957.073.002c.391.001.757.093 1.097.276l.073.04.469.362c.287.29.486.631.596 1.024l.083.616c.012.319-.055.617-.2.893a1.735 1.735 0 0 1-.479.746c-.21.226-.459.386-.746.479a1.748 1.748 0 0 1-.819.202l-.074-.002a2.307 2.307 0 0 1-1.169-.316l-.469-.363a2.315 2.315 0 0 1-.596-1.023l-.083-.616a1.737 1.737 0 0 1 .2-.893c.093-.288.253-.536.479-.747.21-.225.458-.385.746-.479.255-.134.528-.201.819-.201Zm6.87-54.458c.499-.724 1.404-.08 1.275.501.034 1.634.118 3.219.489 4.819.17.733.393 1.466.737 2.137l.144.283c.445.879.791 1.708.191 2.673-.282.455-.793.796-1.346.773-2.454-.106-2.791-3.523-2.94-5.431-.154-1.964.324-4.123 1.45-5.755Z"
        fill="#000" />
    <path fill-rule="evenodd" clip-rule="evenodd"
        d="M164.267 102.294c-.455-3.998.133-12.354.173-12.861.249-3.21-1.254-15.883-4.096-14.715-4.766-3.775-11.115-4.609-17.052-5.007-12.331-.827-25.449 1.072-34.971 9.374-4.709 4.311-9.293 10.582-8.924 17.11-4.279 6.19-10.31 14.679-4.98 21.914 1.812 2.312 4.692 3.172 6.968 4.923 4.579 3.694 7.451 8.996 12.073 12.669 12.245 11.007 33.038 13.307 45.069.787 9.303-9.068 7.799-22.634 6.162-34.194-1.1-7.772.465 7.799-.422 0Z"
        fill="#fff" />
    <path fill-rule="evenodd" clip-rule="evenodd"
        d="M126.82 52.758c3.298-.666 6.684-1.08 10.052-.955l.26.01c2.533.101 5.743.325 7.953 1.8a.457.457 0 0 1 .517-.105c2.627 1.254 5.516 2.161 8.282 3.062a37.455 37.455 0 0 0 8.496 1.728c1.085.09 2.015 1.262 1.327 2.314-.163.25-.323.504-.481.758l.796-.083c.873-.088 1.745.844 1.693 1.695-.032.535-.09 1.063-.175 1.585.333-.007.663.043.983.178 1.617.684 1.504 2.61 1.383 4.077-.167 2.035-.928 4.19-2.341 5.713 1.055 1.096 1.802 2.405 2.247 3.96.323 1.134.503 2.343.414 3.525l-.028.353c-.11 1.282-.328 2.702-1.25 3.624a1.963 1.963 0 0 1-1.612.594c.336 2.955.551 5.926.754 8.887l.095 1.416c.453 6.843.793 13.731.704 20.586-.083 6.406-1.348 12.624-5.276 17.825-3.577 4.737-8.712 8.228-14.522 9.555-3.131.717-6.328.768-9.497.311-1.536-.222-3.082-.562-4.54-1.099-1.614-.596-2.774-1.473-3.86-2.788-.513-.623-.266-1.95.757-1.826 1.546.188 2.959.414 4.441.872l.213.067c1.477.473 3.006.826 4.55.976 3.163.307 6.374-.002 9.404-.962 4.933-1.564 9.182-5.049 11.905-9.428 3.232-5.191 3.598-11.083 3.551-17.052a433.53 433.53 0 0 0-.61-19.645l-.059-1.09c-.184-3.367-.362-6.736-.518-10.105a39.428 39.428 0 0 0-.256-3.176c-1.218-.715-2.311-1.7-3.023-2.915-1.43.592-2.934 1.019-4.318 1.359-3.206.789-6.534.98-9.797.486-.88.364-1.778.684-2.69.959a57.5 57.5 0 0 1-.738.322c-2.198.94-4.427 1.737-6.746 2.32l-.57.143c-1.221.3-2.547.597-3.846.69a5.573 5.573 0 0 1-.695.214c-1.183.287-2.41.378-3.623.277-1.181-.1-2.035-1.294-1.384-2.412.475-.816.955-1.63 1.439-2.441a45.789 45.789 0 0 1-5.176 1.78c-1.77.498-3.566.919-5.364 1.306-.962.205-1.927.386-2.886.591-.687.146-1.741.222-2.301.675-.619.496-.794 1.655-1.029 2.369a57.718 57.718 0 0 0-2.152 8.52 54.65 54.65 0 0 0-.683 5.833c-.124 1.953-.07 3.918-.27 5.863-.108 1.031-1.215 1.561-2.033.841l-.288-.257-.143-.13c-.699-.634-1.377-1.306-1.937-2.063a6.389 6.389 0 0 1-.289-.433.068.068 0 0 1-.043-.015l-.155-.117c-1.708-1.272-4.563-2.931-6.23-.817-.53.673-.802 1.531-1.028 2.358l-.395 1.48c-.256.967-.497 1.938-.638 2.927-.32 2.215-.159 4.768 1.365 6.544.608.71 1.447 1.217 2.382 1.35.523.072 1.038-.017 1.556-.082.526-.066 1.033.04 1.559-.011.836-.082 1.202.92.889 1.549-.169.339-.368.63-.593.878.181.156.355.325.521.503.495.158.938.498 1.27.949.268.363.408.758.431 1.175.03.103.055.209.078.317l.454.736c.099.161.199.32.298.477a23.062 23.062 0 0 0 4.025 4.806c1.532 1.395 3.194 2.644 4.633 4.14l.17.178c1.341 1.414 2.755 3.126 2.23 5.182-.135.528-.873.909-1.354.552-1.549-1.15-2.328-2.972-3.642-4.367-1.353-1.437-2.851-2.728-4.207-4.161a16.455 16.455 0 0 1-3.057-4.572c-.304.336-.748.575-1.362.668-1.057.159-2.041-.461-2.502-1.376-.296.131-.598.25-.902.343-1.602.49-2.609-1.292-2.005-2.608a6.452 6.452 0 0 1 1.228-1.835c-1.566-.216-3.159-1.025-4.188-2.035-2.581-2.539-2.936-6.353-2.355-9.746.308-1.798.84-3.618 1.531-5.307.12-.293.25-.589.391-.881a.275.275 0 0 1-.21-.101c-.466-.639-1.034-1.161-1.38-1.875-.32-.655-.675-1.319-.926-2.002-.518-1.397-.771-2.973-.94-4.45-.349-3.025-.214-6.03.25-9.036a36.428 36.428 0 0 1 5.494-14.316 2.442 2.442 0 0 1-.435-.291l-.068-.06-.11-.098c-.8-.725-.73-2.082 0-2.816l.232-.231a6.091 6.091 0 0 1 1.23-.969 2.031 2.031 0 0 1-.162-1.58c.6-2.054 3.554-1.981 5.426-1.086a33.782 33.782 0 0 1 6.857-4.754c5.928-3.094 12.631-5.252 19.177-6.57Zm-30.645 54.085c1.108-.362 2.578.397 3.573.854 1.261.579 2.334 1.435 3.374 2.339.518.452.61 1.192.482 1.824-.013.064-.026.129-.041.195-.137.674-.889 1.204-1.555 1.185-1.392-.038-2.055-1.24-2.843-2.259a1.453 1.453 0 0 1-.353.431l-.097.076c-.327.249-.688.448-1.12.429a2.093 2.093 0 0 1-.87-.234c-.676-.358-.974-1.233-.79-1.945.114-.448.375-.799.718-1.042l-.128-.087c-.273-.19-.522-.39-.716-.686l-.044-.07h.017a.685.685 0 0 1 .393-1.01Z"
        fill="#000" />
    <path class="a" fill-rule="evenodd" clip-rule="evenodd"
        d="M148.319 128.112c-1.557.451-3.227.491-4.814.025-1.439-.422-2.916-1.352-3.975-2.582-.941-1.093-1.55-2.421-1.526-3.838a.629.629 0 0 1 .15-.402.69.69 0 0 1 .373-.224.677.677 0 0 1 .436.038c.12.054.223.147.287.283.163.214.325.424.488.629 1.308 1.617 2.576 2.825 4.543 3.258a5.534 5.534 0 0 0 3.113-.228 6.668 6.668 0 0 0 2.736-1.923c.335-.391.731-.55 1.118-.553.438-.003.872.201 1.198.527.321.32.536.756.556 1.211.017.399-.113.817-.46 1.189a9.355 9.355 0 0 1-4.223 2.59Zm-.048-20.246c1.595.97 4.026 3.232 2.31 5.637-2.021 2.121-4.929-.31-6.363-1.41-1.329-.852-2.822 1.34-1.589 2.335 10.357 7.671 14.561-6.308 6.449-7.702-.894-.154-1.225.84-.807 1.14Zm-14.924-4.268c-.513-.328-1.116-.441-1.785-.137-.522.238-1.438 1.03-2.076 2.072-.436.712-.745 1.548-.681 2.419a.546.546 0 0 1-.178.461.69.69 0 0 1-.385.171 1.002 1.002 0 0 1-.406-.036c-.232-.073-.355-.223-.401-.346-.446-1.186-.254-2.51.246-3.704.676-1.612 1.902-2.962 2.705-3.397 1.375-.745 2.997-.779 4.374-.02 1.172.646 1.905 1.689 2.634 2.752.155.226.308.45.467.671.319.441.351.879.227 1.255-.136.416-.485.767-.921.951a1.66 1.66 0 0 1-1.283.019c-.35-.148-.67-.435-.873-.922-.342-.822-.911-1.728-1.664-2.209Zm26.042 1.827c-.351.183-.626.238-1.016.121a1.45 1.45 0 0 1-.595-.356 1.18 1.18 0 0 1-.33-.598c-.114-.563-.422-1.09-.861-1.433a1.721 1.721 0 0 0-1.372-.361c-.567.094-1.106.458-1.478.886-.124.143-.221.306-.319.468-.183.302-.361.583-.614.805a.58.58 0 0 1-.549.117c-.563-.566-.672-.995-.653-1.421.019-.447.195-.899.479-1.321.667-.989 1.934-1.801 2.788-1.984 1.171-.252 2.333.05 3.265.704.959.673 1.67 1.718 1.892 2.895.053.284.03.59-.078.855-.105.26-.289.482-.559.623Zm-23.461-12.377c-.702.684-1.534.79-2.375.885-.467.052-.84.095-1.207.178-1.009.228-2.007.571-2.917 1.065-.951.517-1.988 1.14-2.733 1.939-.178.19-.345.389-.512.589-.153.182-.3.357-.455.526-.178.194-.347.398-.515.6a2.684 2.684 0 0 0-.146.258 5.115 5.115 0 0 1-.304.554c-.117.196-.18.25-.234.275a.485.485 0 0 1-.259.049.437.437 0 0 1-.223-.109c-.36-.305-.467-.805-.456-1.336.017-.806.314-1.698.588-2.246.637-1.275 1.52-2.6 2.582-3.55 1.212-1.086 2.538-1.908 4.06-2.475.947-.352 2.042-.675 3.073-.634.742.03 1.451.25 2.036.801.359.338.532.82.532 1.3 0 .491-.179.984-.535 1.33Zm24.89 6.27a.388.388 0 0 1-.176.153.404.404 0 0 1-.438-.073.394.394 0 0 1-.117-.202c-.466-2.05-1.372-3.574-3.304-4.557-.951-.483-2.045-.79-3.08-1.036-.3-.071-.618-.117-.938-.164-1.003-.146-2.014-.314-2.667-1.125a2.16 2.16 0 0 1-.466-1.685 1.791 1.791 0 0 1 .973-1.327c1.423-.736 3.19-.014 4.627.601l.313.134c1.405.593 2.686 1.376 3.739 2.495.835.889 1.61 2.202 1.921 3.553.26 1.124.199 2.27-.387 3.232Z"
        fill="#000" />
    <path class="a" fill-rule="evenodd" clip-rule="evenodd"
        d="M129.449 129.599c1.71-4.009 5.443-6.955 9.742-8.033 3.156-.788 6.469-.763 9.686-.45 1.686.163 3.494.296 5.083.923 1.356.535 2.462 1.546 3.293 2.733.99 1.407 1.663 3.017 2.136 4.667.067.235.13.471.189.709-.206 1.245-.642 2.305-1.795 3.088-1.125.764-2.467 1.077-3.805 1.188a6.217 6.217 0 0 1-.375-.194c-2.085-1.195-3.553-4.017-6.184-3.635-2.349.341-3.895 3.298-5.292 5.031-4.483.523-8.964-.825-12.612-3.39a7.426 7.426 0 0 1-.066-2.637m33.176-3.041a17.37 17.37 0 0 0-1.346-2.901 16.498 16.498 0 0 0-7.714-6.843c-7.631-3.268-17.505-.964-23.668 4.397-2.105 1.833-4.234 4.526-4.878 7.423a1.075 1.075 0 0 0-.523.279c-4.453-2.805-9.038-5.503-12.626-9.39-2.606-2.825-4.418-6.168-5.528-9.841-.091-.302-.578-.258-.563.077l.012.234c-.046-.144-.265-.07-.282.07-.597 4.462-1.344 9.193-.656 13.678.411 2.677 1.626 4.636 3.251 6.752 1.741 2.268 3.711 4.377 5.726 6.4 1.279 1.284 2.614 2.765 4.18 3.707 1.821 1.094 3.886 1.925 5.829 2.769a75.6 75.6 0 0 0 6.028 2.347c4.087 1.384 8.311 2.34 12.609 2.759 3.441.334 7.374.698 10.672-.597 2.527-.992 4.567-2.786 6.186-4.944 1.761-2.351 3.154-5.029 3.924-7.852.8-2.933-.465-8.052-.633-8.524"
        fill="#000" />
    <path class="a" fill-rule="evenodd" clip-rule="evenodd"
        d="M166.085 109.758c-1.423 1.912-4.06 2.521-6.492 2.31-5.246-.505-6.897-6.465-7.069-11.098 3.518.99-.298-6.02 11.728-6.792 4.239-.353 3.07 2.208 4.943 4.08-.039 3.926-.692 8.194-3.11 11.5m-24.987-4.513c-3.097 14.51-20.057 11.059-21.839-2.021 1.645-1.161 1.212-4.03 3.256-5.069 3.239-2.07 7.288-1.982 10.966-1.933 4.702.323 6.042 2.272 8.457 4.397-.116 1.42-.451 3.103-.84 4.626m31.705-13.47a28.544 28.544 0 0 0-.522-.082 1.565 1.565 0 0 0-.481-.172 8.202 8.202 0 0 0-1.264-.22c-6.028-1.356-19.973.57-20.548 5.717-1.92.64-3.581.067-5.806.124-1.693-7.082-30.971-6.082-32.379-1.813a.533.533 0 0 1-.017-.004c-1.353-.42-3.347-.318-4.896-.385a42.512 42.512 0 0 0-9.852.924c-6.058.963-14.326 2.09-10.112 9.658a.01.01 0 0 0 .002.004c.727.744 1.96.145 2.005-.863-1.417-3.586 1.783-4.016 4.245-5.046 6.125-2.202 12.361-2.507 18.696-1.826.477.561 1.2 1.05 1.964 1.307 4.236.703 2.004 3.846 4.681 4.304-.492 10.956 12.806 16.937 20.51 9.735 3.077-3.009 3.81-7.466 4.523-11.484.377-.085.617-.291.757-.564.907-.906 1.477-1.742 3.27-1.991 1.794-.249 3.174.25 3.361.403.047.095.098.19.157.285.082.142.193.255.32.344-1.771 10.911 6.696 17.811 15.243 12.152 3.715-3.495 4.499-8.846 4.654-13.622.504-.304.823-.893.648-1.634-.24-1.02.323-1.904 1.221-2.348 1.165-.576.959-2.681-.38-2.903"
        fill="#000" />
</svg>