<?xml version="1.0" standalone="no"?>
<!DOCTYPE svg PUBLIC "-//W3C//DTD SVG 20010904//EN"
 "http://www.w3.org/TR/2001/REC-SVG-20010904/DTD/svg10.dtd">
<svg version="1.0" xmlns="http://www.w3.org/2000/svg"
 width="1296.000000pt" height="1296.000000pt" viewBox="0 0 1296.000000 1296.000000"
 preserveAspectRatio="xMidYMid meet">
<metadata>
Created by potrace 1.14, written by Peter Selinger 2001-2017
</metadata>
<g transform="translate(0.000000,1296.000000) scale(0.100000,-0.100000)"
fill="#000000" stroke="none">
<path d="M6957 10883 c-3 -2 -22 -6 -44 -8 -43 -4 -111 -14 -133 -20 -8 -2
-29 -7 -45 -9 -24 -4 -156 -37 -200 -50 -5 -1 -27 -6 -48 -11 -20 -4 -40 -11
-42 -16 -3 -4 -12 -6 -19 -3 -8 3 -17 1 -21 -5 -3 -6 -16 -11 -29 -11 -12 0
-25 -3 -29 -6 -3 -4 -37 -17 -74 -30 -37 -13 -81 -30 -98 -38 -16 -8 -70 -34
-120 -57 -49 -23 -93 -46 -97 -53 -4 -6 -8 -8 -8 -3 0 4 -26 -10 -57 -30 -68
-44 -64 -41 -128 -93 -35 -28 -56 -39 -70 -35 -125 35 -206 0 -200 -87 1 -28
-3 -39 -20 -48 -27 -14 -55 -61 -55 -91 0 -12 10 -33 22 -46 23 -24 23 -24 4
-56 -46 -76 -97 -177 -89 -177 4 0 3 -4 -3 -8 -9 -6 -57 -132 -70 -182 -2 -8
-10 -42 -18 -75 -8 -33 -18 -80 -21 -105 -10 -60 -15 -351 -8 -364 4 -5 8 -26
9 -46 2 -20 4 -43 6 -50 2 -8 -10 -20 -27 -28 -35 -17 -82 -59 -97 -87 -17
-31 -21 -93 -8 -128 38 -99 58 -118 94 -92 18 13 19 24 13 85 -4 41 17 83 50
101 12 7 24 10 26 8 1 -2 17 -23 36 -47 l33 -43 -21 -57 c-12 -31 -23 -66 -26
-77 -2 -11 -11 -47 -19 -80 -22 -88 -15 -234 14 -309 34 -89 143 -186 210
-186 26 0 25 -14 -2 -53 -29 -40 -28 -95 2 -119 24 -20 57 -23 79 -9 10 7 20
4 30 -8 27 -30 59 -42 96 -35 19 3 38 11 41 16 3 5 17 -12 30 -37 31 -62 72
-112 197 -237 56 -57 115 -123 132 -148 16 -25 34 -48 38 -51 8 -5 5 -27 -9
-92 -5 -23 -10 -27 -26 -21 -130 41 -346 -56 -401 -178 -6 -16 -15 -28 -18
-28 -6 0 -12 -21 -25 -89 -4 -22 -17 -30 -59 -35 -22 -3 -51 -8 -65 -10 -14
-3 -50 -7 -80 -11 -104 -11 -123 -14 -225 -45 -72 -21 -216 -78 -231 -91 -6
-5 -14 -6 -17 -2 -4 3 -7 1 -7 -6 0 -7 -4 -9 -10 -6 -5 3 -10 1 -10 -4 0 -6
-6 -11 -13 -11 -7 0 -46 -20 -86 -45 -40 -25 -76 -45 -80 -45 -3 0 -18 -11
-33 -25 -15 -14 -30 -25 -32 -25 -7 0 -82 -56 -146 -108 -87 -72 -276 -267
-340 -352 -14 -19 -35 -46 -47 -61 -13 -15 -23 -30 -23 -34 0 -3 -6 -13 -12
-20 -26 -29 -36 -43 -109 -160 -101 -161 -243 -447 -318 -640 -15 -38 -32 -79
-36 -90 -5 -11 -9 -24 -10 -30 0 -5 -4 -15 -8 -22 -9 -15 -119 -332 -122 -353
0 -3 -4 -11 -8 -17 -5 -7 -6 -13 -3 -13 3 0 1 -12 -5 -28 -6 -15 -12 -34 -14
-42 -3 -8 -18 -62 -35 -120 -18 -58 -33 -113 -35 -122 -2 -9 -13 -51 -25 -93
-12 -42 -23 -85 -26 -96 -2 -10 -7 -29 -10 -42 -3 -12 -7 -29 -8 -37 -1 -9 -6
-21 -10 -28 -4 -7 -6 -16 -3 -19 3 -3 1 -17 -5 -32 -10 -27 -14 -44 -23 -96
-3 -16 -8 -38 -11 -47 -7 -22 -14 -54 -46 -208 -12 -58 -22 -120 -22 -137 -1
-18 -4 -33 -7 -33 -3 0 -6 -6 -7 -12 -1 -25 -12 -93 -19 -123 -4 -16 -6 -34
-4 -39 1 -5 -1 -16 -5 -25 -3 -9 -8 -32 -10 -51 -2 -19 -5 -46 -8 -60 -3 -23
-20 -147 -31 -230 -3 -19 -7 -57 -10 -83 -6 -68 -14 -143 -21 -207 -9 -86 -13
-153 -30 -455 -2 -44 -5 -179 -7 -301 l-2 -221 29 -41 c16 -23 35 -42 42 -42
8 0 14 -5 14 -11 0 -28 42 -69 78 -75 20 -4 44 -14 52 -24 21 -23 79 -48 141
-61 30 -6 61 -14 69 -16 8 -3 26 -7 40 -8 14 -1 50 -6 80 -10 30 -5 62 -9 70
-10 112 -13 148 -18 164 -21 23 -4 120 -16 161 -19 17 -2 30 -4 30 -5 0 -1 25
-3 55 -5 30 -1 55 -4 55 -5 0 -1 20 -3 45 -5 25 -2 72 -6 105 -9 33 -4 92 -8
130 -11 39 -2 99 -7 135 -10 36 -3 106 -7 155 -10 50 -2 146 -8 215 -12 159
-10 1289 -10 1520 0 184 8 351 16 435 22 225 15 345 19 650 18 193 0 391 -3
440 -6 50 -4 109 -7 133 -9 23 -1 42 -4 42 -7 0 -3 33 -7 73 -7 39 -1 124 -6
187 -10 143 -10 772 -12 860 -2 69 8 142 17 175 23 11 2 32 8 48 14 15 6 27 9
27 6 0 -2 16 3 35 11 35 14 74 19 62 8 -8 -9 16 -32 45 -43 51 -19 93 49 93
148 -1 82 -20 346 -40 566 -3 28 -7 79 -10 115 -3 36 -7 79 -9 95 -11 72 -19
132 -22 165 -5 59 -14 143 -19 175 -2 17 -5 47 -7 67 -1 21 -4 38 -7 38 -4 0
-7 19 -7 43 -1 23 -5 58 -8 77 -4 19 -8 53 -11 75 -2 22 -6 51 -9 65 -3 14
-10 61 -16 105 -11 76 -17 115 -24 160 -2 11 -7 40 -10 64 -3 23 -9 57 -12 75
-4 17 -7 38 -9 46 -13 90 -23 145 -25 145 -1 0 -4 14 -5 30 -2 17 -6 40 -8 51
-9 37 -19 98 -20 117 -1 9 -4 17 -7 17 -3 0 -6 10 -6 23 -1 19 -16 105 -28
162 -2 11 -14 65 -25 121 -12 55 -24 111 -27 125 -3 13 -7 35 -10 49 -2 14
-10 48 -16 75 -7 28 -13 52 -13 55 -18 88 -56 255 -65 285 -5 17 -11 41 -13
55 -3 14 -10 43 -15 65 -6 22 -13 51 -16 65 -5 27 -9 41 -26 105 -6 22 -13 51
-15 64 -2 13 -8 35 -14 50 -5 14 -15 46 -21 71 -17 67 -90 300 -106 337 -8 17
-14 38 -14 46 0 9 -5 19 -10 22 -6 4 -8 11 -5 16 4 5 1 9 -5 9 -6 0 -9 4 -5 9
3 5 1 12 -5 16 -5 3 -10 13 -10 21 0 8 -28 74 -63 147 -143 297 -318 533 -517
696 -24 19 -48 41 -56 48 -7 7 -17 13 -23 13 -6 0 -11 5 -11 10 0 6 -7 10 -15
10 -8 0 -15 5 -15 10 0 6 -6 10 -14 10 -8 0 -16 4 -18 8 -8 21 -208 121 -208
105 0 -3 -9 2 -20 12 -10 9 -19 20 -18 24 1 3 -2 14 -5 24 -4 9 -10 25 -14 35
-3 9 -5 20 -5 25 1 4 -3 7 -8 7 -5 0 -9 3 -8 8 2 9 -10 41 -61 162 -17 41 -31
79 -31 83 0 5 19 28 43 52 70 71 119 145 166 247 47 104 52 120 57 173 7 70 8
75 27 118 35 77 46 108 65 179 19 67 25 103 39 213 3 22 6 115 7 207 l2 167
30 35 c30 33 92 145 99 176 2 8 9 38 15 65 13 52 15 67 26 179 4 39 15 83 26
102 11 19 15 35 9 38 -21 13 3 69 44 100 28 22 33 31 30 57 -6 43 -19 55 -68
64 -23 5 -44 9 -47 10 -28 8 -116 18 -157 18 -47 0 -53 2 -54 21 -1 38 -8 101
-14 123 -4 17 2 25 33 40 55 27 76 77 76 183 0 71 -6 127 -15 138 -1 1 -2 5
-4 10 -14 51 -18 62 -26 62 -5 0 -9 6 -9 13 0 7 -11 24 -24 37 l-23 25 27 40
c24 35 36 61 46 100 21 76 23 103 15 197 -1 23 -40 58 -63 58 -19 0 -19 0 -22
60 -1 46 -24 73 -64 76 -15 1 -28 3 -30 3 -1 1 5 12 14 26 10 15 13 32 9 42
-5 10 -8 21 -7 24 2 11 -51 29 -103 34 -68 7 -117 14 -137 21 -9 2 -27 7 -39
9 -13 3 -82 24 -153 47 -72 23 -133 42 -136 43 -3 0 -16 7 -30 15 -14 7 -27
13 -30 13 -3 0 -16 4 -30 9 -24 10 -67 25 -170 61 -25 8 -63 18 -85 22 -48 8
-351 15 -358 8z m1413 -1723 c8 -9 29 -44 46 -77 25 -51 30 -72 28 -120 -2
-65 -10 -118 -30 -195 -3 -13 -7 -30 -9 -38 -2 -8 -4 -16 -5 -17 -2 -2 -3 -6
-4 -10 -1 -5 -11 -24 -21 -43 l-20 -35 -5 45 c-3 25 -5 71 -4 103 0 31 -3 57
-7 57 -5 0 -4 11 1 24 5 13 7 26 4 29 -3 2 -7 42 -10 88 -2 46 -6 114 -9 151
-3 60 -2 66 13 61 9 -3 24 -14 32 -23z"/>
</g>
</svg>
