<svg width="200" height="200" viewBox="0 0 200 200" fill="none" xmlns="http://www.w3.org/2000/svg">
<rect width="200" height="200" fill="white"/>
<rect x="20" y="20" width="160" height="160" fill="#27AE60"/>
<path d="M186.381 180.354C186.576 180.158 186.576 179.842 186.381 179.646L183.199 176.464C183.003 176.269 182.687 176.269 182.492 176.464C182.296 176.66 182.296 176.976 182.492 177.172L185.32 180L182.492 182.828C182.296 183.024 182.296 183.34 182.492 183.536C182.687 183.731 183.003 183.731 183.199 183.536L186.381 180.354ZM20 180.5H186.027V179.5H20V180.5Z" fill="black"/>
<path d="M20.3536 13.6464C20.1583 13.4512 19.8417 13.4512 19.6464 13.6464L16.4645 16.8284C16.2692 17.0237 16.2692 17.3403 16.4645 17.5355C16.6597 17.7308 16.9763 17.7308 17.1716 17.5355L20 14.7071L22.8284 17.5355C23.0237 17.7308 23.3403 17.7308 23.5355 17.5355C23.7308 17.3403 23.7308 17.0237 23.5355 16.8284L20.3536 13.6464ZM20.5 180.027L20.5 14H19.5L19.5 180.027H20.5Z" fill="black"/>
<rect x="20" y="100" width="80" height="80" fill="#2D9CDB"/>
<rect x="20" y="20" width="80" height="80" fill="#EB5757"/>
<rect x="100" y="20" width="80" height="80" fill="#A157EB"/>
<path d="M52.2261 57.959H48.9497L48.2139 60H47.1504L50.1367 52.1797H51.0391L54.0308 60H52.9727L52.2261 57.959ZM49.2612 57.1104H51.9199L50.5879 53.4526L49.2612 57.1104ZM57.7368 55.0801C57.5864 55.055 57.4235 55.0425 57.248 55.0425C56.5964 55.0425 56.1541 55.32 55.9214 55.875V60H54.9277V54.1885H55.8945L55.9106 54.8599C56.2365 54.3407 56.6984 54.0811 57.2964 54.0811C57.4897 54.0811 57.6366 54.1061 57.7368 54.1562V55.0801ZM61.4644 55.0801C61.314 55.055 61.151 55.0425 60.9756 55.0425C60.3239 55.0425 59.8817 55.32 59.6489 55.875V60H58.6553V54.1885H59.6221L59.6382 54.8599C59.964 54.3407 60.4259 54.0811 61.0239 54.0811C61.2173 54.0811 61.3641 54.1061 61.4644 54.1562V55.0801ZM65.7559 60C65.6986 59.8854 65.652 59.6813 65.6162 59.3877C65.1543 59.8675 64.6029 60.1074 63.9619 60.1074C63.389 60.1074 62.9181 59.9463 62.5493 59.624C62.1841 59.2982 62.0015 58.8864 62.0015 58.3887C62.0015 57.7835 62.2306 57.3145 62.689 56.9814C63.1509 56.6449 63.799 56.4766 64.6333 56.4766H65.6001V56.02C65.6001 55.6727 65.4963 55.397 65.2886 55.1929C65.0809 54.9852 64.7747 54.8813 64.3701 54.8813C64.0156 54.8813 63.7184 54.9709 63.4785 55.1499C63.2386 55.3289 63.1187 55.5456 63.1187 55.7998H62.1196C62.1196 55.5098 62.2217 55.2305 62.4258 54.9619C62.6335 54.6898 62.9128 54.4749 63.2637 54.3174C63.6182 54.1598 64.0067 54.0811 64.4292 54.0811C65.0988 54.0811 65.6234 54.2493 66.0029 54.5859C66.3825 54.9189 66.5794 55.3791 66.5938 55.9663V58.6411C66.5938 59.1746 66.6618 59.599 66.7979 59.9141V60H65.7559ZM64.1069 59.2427C64.4185 59.2427 64.7139 59.1621 64.9932 59.001C65.2725 58.8398 65.4748 58.6304 65.6001 58.3726V57.1802H64.8213C63.6038 57.1802 62.9951 57.5365 62.9951 58.249C62.9951 58.5605 63.099 58.804 63.3066 58.9795C63.5143 59.1549 63.7811 59.2427 64.1069 59.2427ZM69.9668 58.5444L71.3203 54.1885H72.3838L70.0474 60.897C69.6857 61.8638 69.111 62.3472 68.3232 62.3472L68.1353 62.3311L67.7646 62.2612V61.4556L68.0332 61.4771C68.3698 61.4771 68.6312 61.409 68.8174 61.2729C69.0072 61.1369 69.1629 60.888 69.2847 60.5264L69.5049 59.9355L67.4316 54.1885H68.5166L69.9668 58.5444Z" fill="black"/>
<path d="M117.923 58.3423C117.923 59.1086 117.794 59.7782 117.537 60.3511C117.279 60.9204 116.914 61.3555 116.441 61.6562C115.968 61.957 115.417 62.1074 114.787 62.1074C114.171 62.1074 113.625 61.957 113.148 61.6562C112.672 61.3519 112.302 60.9204 112.037 60.3618C111.775 59.7996 111.641 59.1497 111.634 58.4121V57.8481C111.634 57.0962 111.764 56.432 112.026 55.8555C112.287 55.279 112.656 54.8385 113.132 54.5342C113.612 54.2262 114.16 54.0723 114.776 54.0723C115.403 54.0723 115.954 54.2244 116.43 54.5288C116.91 54.8296 117.279 55.2682 117.537 55.8447C117.794 56.4176 117.923 57.0854 117.923 57.8481V58.3423ZM116.897 57.8374C116.897 56.91 116.711 56.1992 116.339 55.7051C115.966 55.2074 115.445 54.9585 114.776 54.9585C114.124 54.9585 113.61 55.2074 113.234 55.7051C112.862 56.1992 112.67 56.8867 112.66 57.7676V58.3423C112.66 59.241 112.848 59.9482 113.224 60.4639C113.603 60.9759 114.124 61.2319 114.787 61.2319C115.453 61.2319 115.968 60.9902 116.333 60.5068C116.699 60.0199 116.887 59.3234 116.897 58.4175V57.8374ZM124.234 59.1587C124.234 60.0467 124.03 60.7611 123.622 61.3018C123.214 61.8389 122.666 62.1074 121.979 62.1074C121.244 62.1074 120.677 61.8478 120.276 61.3286L120.228 62H119.314V53.75H120.308V56.8276C120.709 56.3299 121.262 56.0811 121.968 56.0811C122.673 56.0811 123.226 56.3478 123.627 56.8813C124.032 57.4149 124.234 58.1453 124.234 59.0728V59.1587ZM123.241 59.0459C123.241 58.3691 123.11 57.8464 122.849 57.4775C122.587 57.1087 122.211 56.9243 121.721 56.9243C121.065 56.9243 120.595 57.2287 120.308 57.8374V60.3511C120.612 60.9598 121.087 61.2642 121.731 61.2642C122.208 61.2642 122.578 61.0798 122.843 60.7109C123.108 60.3421 123.241 59.7871 123.241 59.0459ZM128.875 60.4585C128.875 60.1899 128.773 59.9823 128.569 59.8354C128.368 59.6851 128.016 59.5562 127.511 59.4487C127.009 59.3413 126.61 59.2124 126.313 59.062C126.019 58.9116 125.801 58.7326 125.658 58.5249C125.518 58.3172 125.448 58.0701 125.448 57.7837C125.448 57.3075 125.649 56.9046 126.05 56.5752C126.454 56.2458 126.97 56.0811 127.597 56.0811C128.256 56.0811 128.789 56.2511 129.197 56.5913C129.609 56.9315 129.815 57.3665 129.815 57.8965H128.816C128.816 57.6243 128.7 57.3898 128.467 57.1929C128.238 56.9959 127.948 56.8975 127.597 56.8975C127.235 56.8975 126.952 56.9762 126.748 57.1338C126.544 57.2913 126.442 57.4972 126.442 57.7515C126.442 57.9914 126.537 58.1722 126.727 58.2939C126.916 58.4157 127.258 58.5321 127.752 58.6431C128.25 58.7541 128.653 58.8866 128.961 59.0405C129.269 59.1945 129.496 59.3807 129.643 59.5991C129.793 59.814 129.869 60.0771 129.869 60.3887C129.869 60.9079 129.661 61.325 129.246 61.6401C128.83 61.9517 128.291 62.1074 127.629 62.1074C127.163 62.1074 126.752 62.0251 126.394 61.8604C126.035 61.6956 125.754 61.4665 125.55 61.1729C125.35 60.8757 125.25 60.5552 125.25 60.2114H126.243C126.261 60.5444 126.394 60.8094 126.641 61.0063C126.891 61.1997 127.221 61.2964 127.629 61.2964C128.005 61.2964 128.306 61.2212 128.531 61.0708C128.76 60.9168 128.875 60.7127 128.875 60.4585ZM133.575 62.1074C132.787 62.1074 132.146 61.8496 131.652 61.334C131.158 60.8148 130.911 60.1219 130.911 59.2554V59.0728C130.911 58.4963 131.02 57.9824 131.238 57.5312C131.46 57.0765 131.768 56.722 132.162 56.4678C132.56 56.21 132.989 56.0811 133.451 56.0811C134.207 56.0811 134.794 56.3299 135.213 56.8276C135.632 57.3254 135.841 58.0379 135.841 58.9653V59.3789H131.904C131.919 59.9518 132.085 60.4155 132.404 60.77C132.726 61.1209 133.134 61.2964 133.628 61.2964C133.979 61.2964 134.277 61.2248 134.52 61.0815C134.764 60.9383 134.977 60.7485 135.159 60.5122L135.766 60.9849C135.279 61.7332 134.549 62.1074 133.575 62.1074ZM133.451 56.8975C133.05 56.8975 132.714 57.0443 132.441 57.3379C132.169 57.6279 132.001 58.0361 131.937 58.5625H134.848V58.4873C134.819 57.9824 134.683 57.5921 134.439 57.3164C134.196 57.0371 133.867 56.8975 133.451 56.8975ZM139.805 57.0801C139.655 57.055 139.492 57.0425 139.316 57.0425C138.665 57.0425 138.222 57.32 137.99 57.875V62H136.996V56.1885H137.963L137.979 56.8599C138.305 56.3407 138.767 56.0811 139.365 56.0811C139.558 56.0811 139.705 56.1061 139.805 56.1562V57.0801ZM142.738 60.6519L144.177 56.1885H145.192L143.108 62H142.351L140.246 56.1885H141.261L142.738 60.6519ZM149.65 62C149.593 61.8854 149.547 61.6813 149.511 61.3877C149.049 61.8675 148.497 62.1074 147.856 62.1074C147.284 62.1074 146.813 61.9463 146.444 61.624C146.079 61.2982 145.896 60.8864 145.896 60.3887C145.896 59.7835 146.125 59.3145 146.583 58.9814C147.045 58.6449 147.694 58.4766 148.528 58.4766H149.495V58.02C149.495 57.6727 149.391 57.397 149.183 57.1929C148.975 56.9852 148.669 56.8813 148.265 56.8813C147.91 56.8813 147.613 56.9709 147.373 57.1499C147.133 57.3289 147.013 57.5456 147.013 57.7998H146.014C146.014 57.5098 146.116 57.2305 146.32 56.9619C146.528 56.6898 146.807 56.4749 147.158 56.3174C147.513 56.1598 147.901 56.0811 148.324 56.0811C148.993 56.0811 149.518 56.2493 149.897 56.5859C150.277 56.9189 150.474 57.3791 150.488 57.9663V60.6411C150.488 61.1746 150.556 61.599 150.692 61.9141V62H149.65ZM148.001 61.2427C148.313 61.2427 148.608 61.1621 148.888 61.001C149.167 60.8398 149.369 60.6304 149.495 60.3726V59.1802H148.716C147.498 59.1802 146.89 59.5365 146.89 60.249C146.89 60.5605 146.993 60.804 147.201 60.9795C147.409 61.1549 147.676 61.2427 148.001 61.2427ZM156.966 59.1587C156.966 60.0467 156.762 60.7611 156.354 61.3018C155.945 61.8389 155.397 62.1074 154.71 62.1074C153.976 62.1074 153.408 61.8478 153.007 61.3286L152.959 62H152.046V53.75H153.04V56.8276C153.441 56.3299 153.994 56.0811 154.699 56.0811C155.405 56.0811 155.958 56.3478 156.359 56.8813C156.764 57.4149 156.966 58.1453 156.966 59.0728V59.1587ZM155.972 59.0459C155.972 58.3691 155.841 57.8464 155.58 57.4775C155.319 57.1087 154.943 56.9243 154.452 56.9243C153.797 56.9243 153.326 57.2287 153.04 57.8374V60.3511C153.344 60.9598 153.818 61.2642 154.463 61.2642C154.939 61.2642 155.31 61.0798 155.575 60.7109C155.84 60.3421 155.972 59.7871 155.972 59.0459ZM159.302 62H158.309V53.75H159.302V62ZM163.309 62.1074C162.521 62.1074 161.88 61.8496 161.386 61.334C160.892 60.8148 160.645 60.1219 160.645 59.2554V59.0728C160.645 58.4963 160.754 57.9824 160.973 57.5312C161.195 57.0765 161.503 56.722 161.896 56.4678C162.294 56.21 162.724 56.0811 163.186 56.0811C163.941 56.0811 164.528 56.3299 164.947 56.8276C165.366 57.3254 165.576 58.0379 165.576 58.9653V59.3789H161.639C161.653 59.9518 161.819 60.4155 162.138 60.77C162.46 61.1209 162.869 61.2964 163.363 61.2964C163.714 61.2964 164.011 61.2248 164.254 61.0815C164.498 60.9383 164.711 60.7485 164.894 60.5122L165.5 60.9849C165.014 61.7332 164.283 62.1074 163.309 62.1074ZM163.186 56.8975C162.785 56.8975 162.448 57.0443 162.176 57.3379C161.904 57.6279 161.735 58.0361 161.671 58.5625H164.582V58.4873C164.553 57.9824 164.417 57.5921 164.174 57.3164C163.93 57.0371 163.601 56.8975 163.186 56.8975ZM170.114 60.4585C170.114 60.1899 170.012 59.9823 169.808 59.8354C169.608 59.6851 169.255 59.5562 168.75 59.4487C168.249 59.3413 167.849 59.2124 167.552 59.062C167.259 58.9116 167.04 58.7326 166.897 58.5249C166.757 58.3172 166.688 58.0701 166.688 57.7837C166.688 57.3075 166.888 56.9046 167.289 56.5752C167.694 56.2458 168.209 56.0811 168.836 56.0811C169.495 56.0811 170.028 56.2511 170.437 56.5913C170.848 56.9315 171.054 57.3665 171.054 57.8965H170.055C170.055 57.6243 169.939 57.3898 169.706 57.1929C169.477 56.9959 169.187 56.8975 168.836 56.8975C168.474 56.8975 168.191 56.9762 167.987 57.1338C167.783 57.2913 167.681 57.4972 167.681 57.7515C167.681 57.9914 167.776 58.1722 167.966 58.2939C168.156 58.4157 168.498 58.5321 168.992 58.6431C169.489 58.7541 169.892 58.8866 170.2 59.0405C170.508 59.1945 170.736 59.3807 170.882 59.5991C171.033 59.814 171.108 60.0771 171.108 60.3887C171.108 60.9079 170.9 61.325 170.485 61.6401C170.069 61.9517 169.531 62.1074 168.868 62.1074C168.403 62.1074 167.991 62.0251 167.633 61.8604C167.275 61.6956 166.994 61.4665 166.79 61.1729C166.589 60.8757 166.489 60.5552 166.489 60.2114H167.482C167.5 60.5444 167.633 60.8094 167.88 61.0063C168.131 61.1997 168.46 61.2964 168.868 61.2964C169.244 61.2964 169.545 61.2212 169.771 61.0708C170 60.9168 170.114 60.7127 170.114 60.4585Z" fill="black"/>
<path d="M46.9233 140.342C46.9233 141.109 46.7944 141.778 46.5366 142.351C46.2788 142.92 45.9136 143.355 45.4409 143.656C44.9683 143.957 44.4168 144.107 43.7866 144.107C43.1707 144.107 42.6247 143.957 42.1484 143.656C41.6722 143.352 41.3016 142.92 41.0366 142.362C40.7752 141.8 40.641 141.15 40.6338 140.412V139.848C40.6338 139.096 40.7645 138.432 41.0259 137.855C41.2873 137.279 41.6561 136.839 42.1323 136.534C42.6121 136.226 43.16 136.072 43.7759 136.072C44.4025 136.072 44.9539 136.224 45.4302 136.529C45.91 136.83 46.2788 137.268 46.5366 137.845C46.7944 138.418 46.9233 139.085 46.9233 139.848V140.342ZM45.8975 139.837C45.8975 138.91 45.7113 138.199 45.3389 137.705C44.9665 137.207 44.4455 136.958 43.7759 136.958C43.1242 136.958 42.6104 137.207 42.2344 137.705C41.862 138.199 41.6704 138.887 41.6597 139.768V140.342C41.6597 141.241 41.8477 141.948 42.2236 142.464C42.6032 142.976 43.1242 143.232 43.7866 143.232C44.4526 143.232 44.9683 142.99 45.3335 142.507C45.6987 142.02 45.8867 141.323 45.8975 140.417V139.837ZM53.2344 141.159C53.2344 142.047 53.0303 142.761 52.6221 143.302C52.2139 143.839 51.666 144.107 50.9785 144.107C50.2445 144.107 49.6769 143.848 49.2759 143.329L49.2275 144H48.3145V135.75H49.3081V138.828C49.7091 138.33 50.2624 138.081 50.9678 138.081C51.6732 138.081 52.2264 138.348 52.6274 138.881C53.0321 139.415 53.2344 140.145 53.2344 141.073V141.159ZM52.2407 141.046C52.2407 140.369 52.11 139.846 51.8486 139.478C51.5872 139.109 51.2113 138.924 50.7207 138.924C50.0654 138.924 49.5946 139.229 49.3081 139.837V142.351C49.6125 142.96 50.0869 143.264 50.7314 143.264C51.2077 143.264 51.5783 143.08 51.8433 142.711C52.1082 142.342 52.2407 141.787 52.2407 141.046ZM55.5171 138.188V144.671C55.5171 145.789 55.0104 146.347 53.9971 146.347C53.7786 146.347 53.5763 146.315 53.3901 146.25V145.456C53.5047 145.484 53.6551 145.499 53.8413 145.499C54.0633 145.499 54.2316 145.438 54.3462 145.316C54.4644 145.198 54.5234 144.99 54.5234 144.693V138.188H55.5171ZM54.4214 136.647C54.4214 136.489 54.4697 136.355 54.5664 136.244C54.6667 136.13 54.8117 136.072 55.0015 136.072C55.1948 136.072 55.3416 136.128 55.4419 136.239C55.5422 136.35 55.5923 136.486 55.5923 136.647C55.5923 136.808 55.5422 136.942 55.4419 137.05C55.3416 137.157 55.1948 137.211 55.0015 137.211C54.8081 137.211 54.6631 137.157 54.5664 137.05C54.4697 136.942 54.4214 136.808 54.4214 136.647ZM59.5347 144.107C58.7469 144.107 58.106 143.85 57.6118 143.334C57.1177 142.815 56.8706 142.122 56.8706 141.255V141.073C56.8706 140.496 56.9798 139.982 57.1982 139.531C57.4202 139.076 57.7282 138.722 58.1221 138.468C58.5195 138.21 58.9492 138.081 59.4111 138.081C60.1667 138.081 60.7539 138.33 61.1729 138.828C61.5918 139.325 61.8013 140.038 61.8013 140.965V141.379H57.8643C57.8786 141.952 58.0451 142.416 58.3638 142.77C58.686 143.121 59.0942 143.296 59.5884 143.296C59.9393 143.296 60.2365 143.225 60.48 143.082C60.7235 142.938 60.9365 142.749 61.1191 142.512L61.7261 142.985C61.2391 143.733 60.5086 144.107 59.5347 144.107ZM59.4111 138.897C59.0101 138.897 58.6735 139.044 58.4014 139.338C58.1292 139.628 57.9609 140.036 57.8965 140.562H60.8076V140.487C60.779 139.982 60.6429 139.592 60.3994 139.316C60.1559 139.037 59.8265 138.897 59.4111 138.897ZM65.2871 143.296C65.6416 143.296 65.9513 143.189 66.2163 142.974C66.4813 142.759 66.6281 142.491 66.6567 142.168H67.5967C67.5788 142.501 67.4642 142.818 67.2529 143.119C67.0417 143.42 66.7588 143.66 66.4043 143.839C66.0534 144.018 65.681 144.107 65.2871 144.107C64.4958 144.107 63.8656 143.844 63.3965 143.318C62.931 142.788 62.6982 142.065 62.6982 141.148V140.981C62.6982 140.416 62.8021 139.913 63.0098 139.472C63.2174 139.032 63.5146 138.69 63.9014 138.446C64.2917 138.203 64.7518 138.081 65.2817 138.081C65.9334 138.081 66.4741 138.276 66.9038 138.667C67.3371 139.057 67.568 139.563 67.5967 140.187H66.6567C66.6281 139.811 66.4849 139.503 66.2271 139.263C65.9728 139.019 65.6577 138.897 65.2817 138.897C64.7769 138.897 64.3848 139.08 64.1055 139.445C63.8298 139.807 63.6919 140.332 63.6919 141.019V141.207C63.6919 141.877 63.8298 142.392 64.1055 142.754C64.3812 143.116 64.7751 143.296 65.2871 143.296ZM70.062 136.781V138.188H71.147V138.957H70.062V142.561C70.062 142.793 70.1104 142.969 70.207 143.087C70.3037 143.201 70.4684 143.259 70.7012 143.259C70.8158 143.259 70.9733 143.237 71.1738 143.194V144C70.9124 144.072 70.6582 144.107 70.4111 144.107C69.9671 144.107 69.6323 143.973 69.4067 143.705C69.1812 143.436 69.0684 143.055 69.0684 142.561V138.957H68.0103V138.188H69.0684V136.781H70.062Z" fill="black"/>
<path d="M117.939 140.938V144H116.908V136.18H119.792C120.648 136.18 121.317 136.398 121.801 136.835C122.288 137.272 122.531 137.85 122.531 138.57C122.531 139.329 122.293 139.914 121.817 140.326C121.344 140.734 120.666 140.938 119.781 140.938H117.939ZM117.939 140.095H119.792C120.343 140.095 120.766 139.966 121.06 139.708C121.353 139.447 121.5 139.071 121.5 138.581C121.5 138.115 121.353 137.743 121.06 137.463C120.766 137.184 120.363 137.039 119.851 137.028H117.939V140.095ZM126.5 139.08C126.35 139.055 126.187 139.042 126.012 139.042C125.36 139.042 124.918 139.32 124.685 139.875V144H123.691V138.188H124.658L124.674 138.86C125 138.341 125.462 138.081 126.06 138.081C126.253 138.081 126.4 138.106 126.5 138.156V139.08ZM127.048 141.041C127.048 140.471 127.159 139.959 127.381 139.504C127.607 139.05 127.918 138.699 128.316 138.452C128.717 138.205 129.174 138.081 129.686 138.081C130.477 138.081 131.116 138.355 131.603 138.903C132.094 139.451 132.339 140.179 132.339 141.089V141.159C132.339 141.724 132.23 142.233 132.011 142.684C131.796 143.132 131.487 143.481 131.082 143.731C130.681 143.982 130.219 144.107 129.696 144.107C128.909 144.107 128.269 143.833 127.779 143.286C127.292 142.738 127.048 142.013 127.048 141.11V141.041ZM128.047 141.159C128.047 141.803 128.196 142.321 128.493 142.711C128.794 143.101 129.195 143.296 129.696 143.296C130.201 143.296 130.602 143.099 130.899 142.706C131.197 142.308 131.345 141.753 131.345 141.041C131.345 140.403 131.193 139.888 130.889 139.494C130.588 139.096 130.187 138.897 129.686 138.897C129.195 138.897 128.799 139.093 128.499 139.483C128.198 139.873 128.047 140.432 128.047 141.159ZM134.52 138.188L134.546 138.833C134.972 138.332 135.547 138.081 136.271 138.081C137.083 138.081 137.637 138.393 137.93 139.016C138.124 138.736 138.374 138.511 138.682 138.339C138.994 138.167 139.361 138.081 139.783 138.081C141.058 138.081 141.706 138.756 141.728 140.106V144H140.734V140.165C140.734 139.75 140.639 139.44 140.449 139.236C140.259 139.028 139.941 138.924 139.493 138.924C139.124 138.924 138.818 139.035 138.575 139.257C138.331 139.476 138.19 139.771 138.15 140.144V144H137.151V140.192C137.151 139.347 136.738 138.924 135.911 138.924C135.259 138.924 134.813 139.202 134.573 139.757V144H133.58V138.188H134.52ZM144.311 144H143.317V138.188H144.311V144ZM143.237 136.647C143.237 136.486 143.285 136.35 143.382 136.239C143.482 136.128 143.629 136.072 143.822 136.072C144.016 136.072 144.162 136.128 144.263 136.239C144.363 136.35 144.413 136.486 144.413 136.647C144.413 136.808 144.363 136.942 144.263 137.05C144.162 137.157 144.016 137.211 143.822 137.211C143.629 137.211 143.482 137.157 143.382 137.05C143.285 136.942 143.237 136.808 143.237 136.647ZM149.29 142.458C149.29 142.19 149.188 141.982 148.984 141.835C148.783 141.685 148.431 141.556 147.926 141.449C147.424 141.341 147.025 141.212 146.728 141.062C146.434 140.912 146.216 140.733 146.073 140.525C145.933 140.317 145.863 140.07 145.863 139.784C145.863 139.307 146.064 138.905 146.465 138.575C146.869 138.246 147.385 138.081 148.012 138.081C148.671 138.081 149.204 138.251 149.612 138.591C150.024 138.931 150.23 139.367 150.23 139.896H149.231C149.231 139.624 149.115 139.39 148.882 139.193C148.653 138.996 148.363 138.897 148.012 138.897C147.65 138.897 147.367 138.976 147.163 139.134C146.959 139.291 146.857 139.497 146.857 139.751C146.857 139.991 146.952 140.172 147.142 140.294C147.331 140.416 147.673 140.532 148.167 140.643C148.665 140.754 149.068 140.887 149.376 141.041C149.684 141.194 149.911 141.381 150.058 141.599C150.208 141.814 150.284 142.077 150.284 142.389C150.284 142.908 150.076 143.325 149.661 143.64C149.245 143.952 148.706 144.107 148.044 144.107C147.578 144.107 147.167 144.025 146.809 143.86C146.451 143.696 146.169 143.466 145.965 143.173C145.765 142.876 145.665 142.555 145.665 142.211H146.658C146.676 142.544 146.809 142.809 147.056 143.006C147.306 143.2 147.636 143.296 148.044 143.296C148.42 143.296 148.721 143.221 148.946 143.071C149.175 142.917 149.29 142.713 149.29 142.458ZM153.99 144.107C153.202 144.107 152.561 143.85 152.067 143.334C151.573 142.815 151.326 142.122 151.326 141.255V141.073C151.326 140.496 151.435 139.982 151.653 139.531C151.875 139.076 152.183 138.722 152.577 138.468C152.975 138.21 153.404 138.081 153.866 138.081C154.622 138.081 155.209 138.33 155.628 138.828C156.047 139.325 156.256 140.038 156.256 140.965V141.379H152.319C152.334 141.952 152.5 142.416 152.819 142.77C153.141 143.121 153.549 143.296 154.043 143.296C154.394 143.296 154.692 143.225 154.935 143.082C155.179 142.938 155.392 142.749 155.574 142.512L156.181 142.985C155.694 143.733 154.964 144.107 153.99 144.107ZM153.866 138.897C153.465 138.897 153.129 139.044 152.856 139.338C152.584 139.628 152.416 140.036 152.352 140.562H155.263V140.487C155.234 139.982 155.098 139.592 154.854 139.316C154.611 139.037 154.282 138.897 153.866 138.897ZM160.795 142.458C160.795 142.19 160.693 141.982 160.489 141.835C160.288 141.685 159.936 141.556 159.431 141.449C158.929 141.341 158.53 141.212 158.233 141.062C157.939 140.912 157.721 140.733 157.578 140.525C157.438 140.317 157.368 140.07 157.368 139.784C157.368 139.307 157.569 138.905 157.97 138.575C158.374 138.246 158.89 138.081 159.517 138.081C160.175 138.081 160.709 138.251 161.117 138.591C161.529 138.931 161.735 139.367 161.735 139.896H160.736C160.736 139.624 160.619 139.39 160.387 139.193C160.158 138.996 159.868 138.897 159.517 138.897C159.155 138.897 158.872 138.976 158.668 139.134C158.464 139.291 158.362 139.497 158.362 139.751C158.362 139.991 158.457 140.172 158.646 140.294C158.836 140.416 159.178 140.532 159.672 140.643C160.17 140.754 160.573 140.887 160.881 141.041C161.189 141.194 161.416 141.381 161.563 141.599C161.713 141.814 161.789 142.077 161.789 142.389C161.789 142.908 161.581 143.325 161.166 143.64C160.75 143.952 160.211 144.107 159.549 144.107C159.083 144.107 158.672 144.025 158.313 143.86C157.955 143.696 157.674 143.466 157.47 143.173C157.27 142.876 157.169 142.555 157.169 142.211H158.163C158.181 142.544 158.313 142.809 158.561 143.006C158.811 143.2 159.141 143.296 159.549 143.296C159.925 143.296 160.226 143.221 160.451 143.071C160.68 142.917 160.795 142.713 160.795 142.458Z" fill="black"/>
<line x1="99.5" y1="180.002" x2="99.5" y2="20.0015" stroke="black"/>
<line x1="20" y1="99.5" x2="180" y2="99.5" stroke="black"/>
<path d="M115.751 189.145H112.772L112.104 191H111.137L113.852 183.891H114.672L117.392 191H116.43L115.751 189.145ZM113.056 188.373H115.473L114.262 185.048L113.056 188.373ZM121.283 189.599C121.283 189.354 121.19 189.166 121.005 189.032C120.823 188.896 120.502 188.778 120.043 188.681C119.587 188.583 119.224 188.466 118.954 188.329C118.687 188.192 118.489 188.03 118.358 187.841C118.231 187.652 118.168 187.427 118.168 187.167C118.168 186.734 118.35 186.368 118.715 186.068C119.083 185.769 119.551 185.619 120.121 185.619C120.72 185.619 121.205 185.774 121.576 186.083C121.951 186.392 122.138 186.788 122.138 187.27H121.229C121.229 187.022 121.124 186.809 120.912 186.63C120.704 186.451 120.44 186.361 120.121 186.361C119.792 186.361 119.535 186.433 119.35 186.576C119.164 186.719 119.071 186.907 119.071 187.138C119.071 187.356 119.158 187.52 119.33 187.631C119.503 187.742 119.813 187.847 120.263 187.948C120.715 188.049 121.081 188.17 121.361 188.31C121.641 188.45 121.848 188.619 121.981 188.817C122.118 189.013 122.187 189.252 122.187 189.535C122.187 190.007 121.998 190.386 121.62 190.673C121.243 190.956 120.753 191.098 120.15 191.098C119.727 191.098 119.353 191.023 119.027 190.873C118.702 190.723 118.446 190.515 118.261 190.248C118.078 189.978 117.987 189.687 117.987 189.374H118.891C118.907 189.677 119.027 189.918 119.252 190.097C119.48 190.272 119.779 190.36 120.15 190.36C120.492 190.36 120.766 190.292 120.971 190.155C121.179 190.015 121.283 189.83 121.283 189.599ZM125.092 189.677L126.322 185.717H127.289L125.165 191.815C124.836 192.694 124.314 193.134 123.598 193.134L123.427 193.119L123.09 193.056V192.323L123.334 192.343C123.64 192.343 123.878 192.281 124.047 192.157C124.219 192.034 124.361 191.807 124.472 191.479L124.672 190.941L122.787 185.717H123.773L125.092 189.677ZM128.954 185.717L128.983 186.381C129.387 185.873 129.914 185.619 130.565 185.619C131.682 185.619 132.245 186.249 132.255 187.509V191H131.352V187.504C131.348 187.123 131.26 186.841 131.088 186.659C130.919 186.477 130.653 186.386 130.292 186.386C129.999 186.386 129.742 186.464 129.521 186.62C129.299 186.776 129.127 186.981 129.003 187.235V191H128.1V185.717H128.954ZM135.736 190.36C136.059 190.36 136.34 190.263 136.581 190.067C136.822 189.872 136.955 189.628 136.981 189.335H137.836C137.82 189.638 137.715 189.926 137.523 190.199C137.331 190.473 137.074 190.691 136.752 190.854C136.433 191.016 136.094 191.098 135.736 191.098C135.017 191.098 134.444 190.858 134.018 190.38C133.594 189.898 133.383 189.241 133.383 188.407V188.256C133.383 187.742 133.477 187.284 133.666 186.884C133.855 186.483 134.125 186.173 134.477 185.951C134.831 185.73 135.25 185.619 135.731 185.619C136.324 185.619 136.815 185.797 137.206 186.151C137.6 186.506 137.81 186.967 137.836 187.533H136.981C136.955 187.191 136.825 186.911 136.591 186.693C136.36 186.472 136.073 186.361 135.731 186.361C135.272 186.361 134.916 186.527 134.662 186.859C134.411 187.188 134.286 187.665 134.286 188.29V188.461C134.286 189.07 134.411 189.538 134.662 189.867C134.913 190.196 135.271 190.36 135.736 190.36ZM139.755 186.356C140.155 185.865 140.676 185.619 141.317 185.619C142.434 185.619 142.997 186.249 143.007 187.509V191H142.104V187.504C142.1 187.123 142.012 186.841 141.84 186.659C141.671 186.477 141.405 186.386 141.044 186.386C140.751 186.386 140.494 186.464 140.272 186.62C140.051 186.776 139.879 186.981 139.755 187.235V191H138.852V183.5H139.755V186.356ZM146.913 186.527C146.776 186.505 146.628 186.493 146.469 186.493C145.876 186.493 145.474 186.745 145.263 187.25V191H144.359V185.717H145.238L145.253 186.327C145.549 185.855 145.969 185.619 146.513 185.619C146.688 185.619 146.822 185.642 146.913 185.688V186.527ZM147.411 188.31C147.411 187.792 147.512 187.326 147.714 186.913C147.919 186.5 148.202 186.181 148.563 185.956C148.928 185.731 149.343 185.619 149.809 185.619C150.528 185.619 151.109 185.868 151.552 186.366C151.998 186.864 152.221 187.527 152.221 188.354V188.417C152.221 188.931 152.121 189.394 151.923 189.804C151.728 190.211 151.446 190.528 151.078 190.756C150.714 190.984 150.294 191.098 149.818 191.098C149.102 191.098 148.521 190.849 148.075 190.351C147.632 189.853 147.411 189.193 147.411 188.373V188.31ZM148.319 188.417C148.319 189.003 148.454 189.473 148.725 189.828C148.998 190.183 149.363 190.36 149.818 190.36C150.277 190.36 150.642 190.181 150.912 189.823C151.182 189.462 151.317 188.957 151.317 188.31C151.317 187.73 151.179 187.261 150.902 186.903C150.629 186.542 150.264 186.361 149.809 186.361C149.363 186.361 149.003 186.539 148.729 186.894C148.456 187.248 148.319 187.756 148.319 188.417ZM154.208 185.717L154.237 186.381C154.641 185.873 155.168 185.619 155.819 185.619C156.936 185.619 157.499 186.249 157.509 187.509V191H156.605V187.504C156.602 187.123 156.514 186.841 156.342 186.659C156.173 186.477 155.907 186.386 155.546 186.386C155.253 186.386 154.996 186.464 154.774 186.62C154.553 186.776 154.381 186.981 154.257 187.235V191H153.354V185.717H154.208ZM158.632 188.31C158.632 187.792 158.733 187.326 158.935 186.913C159.14 186.5 159.423 186.181 159.784 185.956C160.149 185.731 160.564 185.619 161.029 185.619C161.749 185.619 162.33 185.868 162.772 186.366C163.218 186.864 163.441 187.527 163.441 188.354V188.417C163.441 188.931 163.342 189.394 163.144 189.804C162.948 190.211 162.667 190.528 162.299 190.756C161.934 190.984 161.514 191.098 161.039 191.098C160.323 191.098 159.742 190.849 159.296 190.351C158.853 189.853 158.632 189.193 158.632 188.373V188.31ZM159.54 188.417C159.54 189.003 159.675 189.473 159.945 189.828C160.219 190.183 160.583 190.36 161.039 190.36C161.498 190.36 161.863 190.181 162.133 189.823C162.403 189.462 162.538 188.957 162.538 188.31C162.538 187.73 162.4 187.261 162.123 186.903C161.85 186.542 161.485 186.361 161.029 186.361C160.583 186.361 160.224 186.539 159.95 186.894C159.677 187.248 159.54 187.756 159.54 188.417ZM167.836 190.478C167.484 190.891 166.968 191.098 166.288 191.098C165.725 191.098 165.295 190.935 164.999 190.609C164.706 190.281 164.558 189.796 164.555 189.154V185.717H165.458V189.13C165.458 189.931 165.784 190.331 166.435 190.331C167.125 190.331 167.584 190.074 167.812 189.56V185.717H168.715V191H167.855L167.836 190.478ZM173.168 189.599C173.168 189.354 173.075 189.166 172.89 189.032C172.707 188.896 172.387 188.778 171.928 188.681C171.472 188.583 171.109 188.466 170.839 188.329C170.572 188.192 170.373 188.03 170.243 187.841C170.116 187.652 170.053 187.427 170.053 187.167C170.053 186.734 170.235 186.368 170.6 186.068C170.967 185.769 171.436 185.619 172.006 185.619C172.605 185.619 173.09 185.774 173.461 186.083C173.835 186.392 174.022 186.788 174.022 187.27H173.114C173.114 187.022 173.008 186.809 172.797 186.63C172.589 186.451 172.325 186.361 172.006 186.361C171.677 186.361 171.42 186.433 171.234 186.576C171.049 186.719 170.956 186.907 170.956 187.138C170.956 187.356 171.042 187.52 171.215 187.631C171.387 187.742 171.698 187.847 172.147 187.948C172.6 188.049 172.966 188.17 173.246 188.31C173.526 188.45 173.733 188.619 173.866 188.817C174.003 189.013 174.071 189.252 174.071 189.535C174.071 190.007 173.882 190.386 173.505 190.673C173.127 190.956 172.637 191.098 172.035 191.098C171.612 191.098 171.238 191.023 170.912 190.873C170.587 190.723 170.331 190.515 170.146 190.248C169.963 189.978 169.872 189.687 169.872 189.374H170.775C170.792 189.677 170.912 189.918 171.137 190.097C171.365 190.272 171.664 190.36 172.035 190.36C172.377 190.36 172.65 190.292 172.855 190.155C173.064 190.015 173.168 189.83 173.168 189.599Z" fill="black"/>
<path d="M32.9199 187.831C32.1159 187.6 31.5299 187.317 31.1621 186.981C30.7975 186.643 30.6152 186.226 30.6152 185.731C30.6152 185.172 30.8382 184.709 31.2842 184.345C31.7334 183.977 32.3161 183.793 33.0322 183.793C33.5205 183.793 33.9551 183.887 34.3359 184.076C34.7201 184.265 35.0163 184.525 35.2246 184.857C35.4362 185.189 35.542 185.552 35.542 185.946H34.5996C34.5996 185.517 34.4629 185.18 34.1895 184.936C33.916 184.688 33.5303 184.564 33.0322 184.564C32.57 184.564 32.2087 184.667 31.9482 184.872C31.6911 185.074 31.5625 185.355 31.5625 185.717C31.5625 186.007 31.6846 186.252 31.9287 186.454C32.1761 186.653 32.5944 186.835 33.1836 187.001C33.776 187.167 34.2383 187.351 34.5703 187.553C34.9056 187.751 35.153 187.984 35.3125 188.251C35.4753 188.518 35.5566 188.832 35.5566 189.193C35.5566 189.77 35.332 190.232 34.8828 190.58C34.4336 190.925 33.833 191.098 33.0811 191.098C32.5928 191.098 32.137 191.005 31.7139 190.819C31.2907 190.631 30.9635 190.373 30.7324 190.048C30.5046 189.722 30.3906 189.353 30.3906 188.939H31.333C31.333 189.369 31.4909 189.709 31.8066 189.96C32.1257 190.207 32.5505 190.331 33.0811 190.331C33.5758 190.331 33.9551 190.23 34.2188 190.028C34.4824 189.826 34.6143 189.551 34.6143 189.203C34.6143 188.855 34.4922 188.586 34.248 188.397C34.0039 188.205 33.5612 188.017 32.9199 187.831ZM38.3496 189.677L39.5801 185.717H40.5469L38.4229 191.815C38.0941 192.694 37.5716 193.134 36.8555 193.134L36.6846 193.119L36.3477 193.056V192.323L36.5918 192.343C36.8978 192.343 37.1354 192.281 37.3047 192.157C37.4772 192.034 37.6188 191.807 37.7295 191.479L37.9297 190.941L36.0449 185.717H37.0312L38.3496 189.677ZM42.2119 185.717L42.2412 186.381C42.6449 185.873 43.1722 185.619 43.8232 185.619C44.9398 185.619 45.5029 186.249 45.5127 187.509V191H44.6094V187.504C44.6061 187.123 44.5182 186.841 44.3457 186.659C44.1764 186.477 43.9111 186.386 43.5498 186.386C43.2568 186.386 42.9997 186.464 42.7783 186.62C42.557 186.776 42.3844 186.981 42.2607 187.235V191H41.3574V185.717H42.2119ZM48.9941 190.36C49.3164 190.36 49.598 190.263 49.8389 190.067C50.0798 189.872 50.2132 189.628 50.2393 189.335H51.0938C51.0775 189.638 50.9733 189.926 50.7812 190.199C50.5892 190.473 50.332 190.691 50.0098 190.854C49.6908 191.016 49.3522 191.098 48.9941 191.098C48.2747 191.098 47.7018 190.858 47.2754 190.38C46.8522 189.898 46.6406 189.241 46.6406 188.407V188.256C46.6406 187.742 46.735 187.284 46.9238 186.884C47.1126 186.483 47.3828 186.173 47.7344 185.951C48.0892 185.73 48.5075 185.619 48.9893 185.619C49.5817 185.619 50.0732 185.797 50.4639 186.151C50.8577 186.506 51.0677 186.967 51.0938 187.533H50.2393C50.2132 187.191 50.083 186.911 49.8486 186.693C49.6175 186.472 49.3311 186.361 48.9893 186.361C48.5303 186.361 48.1738 186.527 47.9199 186.859C47.6693 187.188 47.5439 187.665 47.5439 188.29V188.461C47.5439 189.07 47.6693 189.538 47.9199 189.867C48.1706 190.196 48.5286 190.36 48.9941 190.36ZM53.0127 186.356C53.4131 185.865 53.9339 185.619 54.5752 185.619C55.6917 185.619 56.2549 186.249 56.2646 187.509V191H55.3613V187.504C55.3581 187.123 55.2702 186.841 55.0977 186.659C54.9284 186.477 54.6631 186.386 54.3018 186.386C54.0088 186.386 53.7516 186.464 53.5303 186.62C53.3089 186.776 53.1364 186.981 53.0127 187.235V191H52.1094V183.5H53.0127V186.356ZM60.1709 186.527C60.0342 186.505 59.8861 186.493 59.7266 186.493C59.1341 186.493 58.7321 186.745 58.5205 187.25V191H57.6172V185.717H58.4961L58.5107 186.327C58.807 185.855 59.2269 185.619 59.7705 185.619C59.9463 185.619 60.0798 185.642 60.1709 185.688V186.527ZM60.6689 188.31C60.6689 187.792 60.7699 187.326 60.9717 186.913C61.1768 186.5 61.46 186.181 61.8213 185.956C62.1859 185.731 62.6009 185.619 63.0664 185.619C63.7858 185.619 64.3669 185.868 64.8096 186.366C65.2555 186.864 65.4785 187.527 65.4785 188.354V188.417C65.4785 188.931 65.3792 189.394 65.1807 189.804C64.9854 190.211 64.7038 190.528 64.3359 190.756C63.9714 190.984 63.5514 191.098 63.0762 191.098C62.36 191.098 61.779 190.849 61.333 190.351C60.8903 189.853 60.6689 189.193 60.6689 188.373V188.31ZM61.5771 188.417C61.5771 189.003 61.7122 189.473 61.9824 189.828C62.2559 190.183 62.6204 190.36 63.0762 190.36C63.5352 190.36 63.8997 190.181 64.1699 189.823C64.4401 189.462 64.5752 188.957 64.5752 188.31C64.5752 187.73 64.4368 187.261 64.1602 186.903C63.8867 186.542 63.5221 186.361 63.0664 186.361C62.6204 186.361 62.2607 186.539 61.9873 186.894C61.7139 187.248 61.5771 187.756 61.5771 188.417ZM67.4658 185.717L67.4951 186.381C67.8988 185.873 68.4261 185.619 69.0771 185.619C70.1937 185.619 70.7568 186.249 70.7666 187.509V191H69.8633V187.504C69.86 187.123 69.7721 186.841 69.5996 186.659C69.4303 186.477 69.165 186.386 68.8037 186.386C68.5107 186.386 68.2536 186.464 68.0322 186.62C67.8109 186.776 67.6383 186.981 67.5146 187.235V191H66.6113V185.717H67.4658ZM71.8896 188.31C71.8896 187.792 71.9906 187.326 72.1924 186.913C72.3975 186.5 72.6807 186.181 73.042 185.956C73.4066 185.731 73.8216 185.619 74.2871 185.619C75.0065 185.619 75.5876 185.868 76.0303 186.366C76.4762 186.864 76.6992 187.527 76.6992 188.354V188.417C76.6992 188.931 76.5999 189.394 76.4014 189.804C76.2061 190.211 75.9245 190.528 75.5566 190.756C75.1921 190.984 74.7721 191.098 74.2969 191.098C73.5807 191.098 72.9997 190.849 72.5537 190.351C72.111 189.853 71.8896 189.193 71.8896 188.373V188.31ZM72.7979 188.417C72.7979 189.003 72.9329 189.473 73.2031 189.828C73.4766 190.183 73.8411 190.36 74.2969 190.36C74.7559 190.36 75.1204 190.181 75.3906 189.823C75.6608 189.462 75.7959 188.957 75.7959 188.31C75.7959 187.73 75.6576 187.261 75.3809 186.903C75.1074 186.542 74.7428 186.361 74.2871 186.361C73.8411 186.361 73.4814 186.539 73.208 186.894C72.9346 187.248 72.7979 187.756 72.7979 188.417ZM81.0938 190.478C80.7422 190.891 80.2262 191.098 79.5459 191.098C78.9827 191.098 78.5531 190.935 78.2568 190.609C77.9639 190.281 77.8158 189.796 77.8125 189.154V185.717H78.7158V189.13C78.7158 189.931 79.0413 190.331 79.6924 190.331C80.3825 190.331 80.8415 190.074 81.0693 189.56V185.717H81.9727V191H81.1133L81.0938 190.478ZM86.4258 189.599C86.4258 189.354 86.333 189.166 86.1475 189.032C85.9652 188.896 85.6445 188.778 85.1855 188.681C84.7298 188.583 84.3669 188.466 84.0967 188.329C83.8298 188.192 83.6312 188.03 83.501 187.841C83.374 187.652 83.3105 187.427 83.3105 187.167C83.3105 186.734 83.4928 186.368 83.8574 186.068C84.2253 185.769 84.694 185.619 85.2637 185.619C85.8626 185.619 86.3477 185.774 86.7188 186.083C87.0931 186.392 87.2803 186.788 87.2803 187.27H86.3721C86.3721 187.022 86.2663 186.809 86.0547 186.63C85.8464 186.451 85.5827 186.361 85.2637 186.361C84.9349 186.361 84.6777 186.433 84.4922 186.576C84.3066 186.719 84.2139 186.907 84.2139 187.138C84.2139 187.356 84.3001 187.52 84.4727 187.631C84.6452 187.742 84.9561 187.847 85.4053 187.948C85.8577 188.049 86.224 188.17 86.5039 188.31C86.7839 188.45 86.9906 188.619 87.124 188.817C87.2607 189.013 87.3291 189.252 87.3291 189.535C87.3291 190.007 87.1403 190.386 86.7627 190.673C86.3851 190.956 85.8952 191.098 85.293 191.098C84.8698 191.098 84.4954 191.023 84.1699 190.873C83.8444 190.723 83.5889 190.515 83.4033 190.248C83.221 189.978 83.1299 189.687 83.1299 189.374H84.0332C84.0495 189.677 84.1699 189.918 84.3945 190.097C84.6224 190.272 84.9219 190.36 85.293 190.36C85.6348 190.36 85.9082 190.292 86.1133 190.155C86.3216 190.015 86.4258 189.83 86.4258 189.599Z" fill="black"/>
<path d="M9.83105 169.08C9.59993 169.884 9.31673 170.47 8.98145 170.838C8.6429 171.202 8.22624 171.385 7.73145 171.385C7.17155 171.385 6.70931 171.162 6.34473 170.716C5.97689 170.267 5.79297 169.684 5.79297 168.968C5.79297 168.479 5.88737 168.045 6.07617 167.664C6.26497 167.28 6.52539 166.984 6.85742 166.775C7.18945 166.564 7.55241 166.458 7.94629 166.458V167.4C7.5166 167.4 7.17969 167.537 6.93555 167.811C6.68815 168.084 6.56445 168.47 6.56445 168.968C6.56445 169.43 6.66699 169.791 6.87207 170.052C7.07389 170.309 7.35547 170.438 7.7168 170.438C8.00651 170.438 8.25228 170.315 8.4541 170.071C8.65267 169.824 8.83496 169.406 9.00098 168.816C9.16699 168.224 9.35091 167.762 9.55273 167.43C9.7513 167.094 9.98405 166.847 10.251 166.688C10.5179 166.525 10.832 166.443 11.1934 166.443C11.7695 166.443 12.2318 166.668 12.5801 167.117C12.9251 167.566 13.0977 168.167 13.0977 168.919C13.0977 169.407 13.0049 169.863 12.8193 170.286C12.6305 170.709 12.3734 171.036 12.0479 171.268C11.7223 171.495 11.3529 171.609 10.9395 171.609V170.667C11.3691 170.667 11.7093 170.509 11.96 170.193C12.2074 169.874 12.3311 169.45 12.3311 168.919C12.3311 168.424 12.2301 168.045 12.0283 167.781C11.8265 167.518 11.5514 167.386 11.2031 167.386C10.8548 167.386 10.5863 167.508 10.3975 167.752C10.2054 167.996 10.0166 168.439 9.83105 169.08ZM13 164.397V165.301H7.7168V164.397H13ZM6.31543 165.374C6.16895 165.374 6.04525 165.33 5.94434 165.242C5.84342 165.151 5.79297 165.018 5.79297 164.842C5.79297 164.666 5.84342 164.533 5.94434 164.441C6.04525 164.35 6.16895 164.305 6.31543 164.305C6.46191 164.305 6.58398 164.35 6.68164 164.441C6.7793 164.533 6.82812 164.666 6.82812 164.842C6.82812 165.018 6.7793 165.151 6.68164 165.242C6.58398 165.33 6.46191 165.374 6.31543 165.374ZM7.7168 162.093L8.38086 162.063C7.87305 161.66 7.61914 161.132 7.61914 160.481C7.61914 159.365 8.24902 158.802 9.50879 158.792H13V159.695H9.50391C9.12305 159.699 8.84147 159.786 8.65918 159.959C8.47689 160.128 8.38574 160.394 8.38574 160.755C8.38574 161.048 8.46387 161.305 8.62012 161.526C8.77637 161.748 8.98145 161.92 9.23535 162.044H13V162.947H7.7168V162.093ZM10.3145 157.645C9.49089 157.645 8.83659 157.454 8.35156 157.073C7.86328 156.692 7.61914 156.188 7.61914 155.56C7.61914 154.915 7.84701 154.412 8.30273 154.051L7.7168 154.007L7.7168 153.182H12.873C13.5566 153.182 14.0954 153.385 14.4893 153.792C14.8831 154.196 15.0801 154.739 15.0801 155.423C15.0801 155.804 14.9987 156.176 14.8359 156.541C14.6732 156.906 14.4502 157.184 14.167 157.376L13.625 156.907C14.1035 156.52 14.3428 156.046 14.3428 155.486C14.3428 155.047 14.2191 154.705 13.9717 154.461C13.7243 154.214 13.376 154.09 12.9268 154.09H12.4727C12.8893 154.451 13.0977 154.944 13.0977 155.569C13.0977 156.188 12.8486 156.689 12.3506 157.073C11.8525 157.454 11.1738 157.645 10.3145 157.645ZM10.417 156.736C11.0127 156.736 11.4814 156.614 11.8232 156.37C12.1618 156.126 12.3311 155.784 12.3311 155.345C12.3311 154.775 12.0723 154.357 11.5547 154.09H9.14258C8.63802 154.367 8.38574 154.782 8.38574 155.335C8.38574 155.774 8.55664 156.118 8.89844 156.365C9.24023 156.613 9.74642 156.736 10.417 156.736ZM13 150.833V151.736H5.5V150.833H13ZM13.0977 147.19C13.0977 147.907 12.8633 148.489 12.3945 148.938C11.9225 149.388 11.2926 149.612 10.5049 149.612H10.3389C9.81478 149.612 9.34766 149.513 8.9375 149.314C8.52409 149.113 8.20182 148.833 7.9707 148.475C7.73633 148.113 7.61914 147.723 7.61914 147.303C7.61914 146.616 7.84538 146.082 8.29785 145.701C8.75033 145.32 9.39811 145.13 10.2412 145.13H10.6172V148.709C11.138 148.696 11.5596 148.545 11.8818 148.255C12.2008 147.962 12.3604 147.591 12.3604 147.142C12.3604 146.823 12.2952 146.552 12.165 146.331C12.0348 146.11 11.8623 145.916 11.6475 145.75L12.0771 145.198C12.7575 145.641 13.0977 146.305 13.0977 147.19ZM8.36133 147.303C8.36133 147.667 8.49479 147.973 8.76172 148.221C9.02539 148.468 9.39648 148.621 9.875 148.68V146.033H9.80664C9.34766 146.059 8.99284 146.183 8.74219 146.404C8.48828 146.626 8.36133 146.925 8.36133 147.303ZM11.7744 139.856L7.7168 138.548V137.625L13 139.52V140.208L7.7168 142.122V141.199L11.7744 139.856ZM13 133.572C12.8958 133.624 12.7103 133.667 12.4434 133.699C12.8796 134.119 13.0977 134.62 13.0977 135.203C13.0977 135.724 12.9512 136.152 12.6582 136.487C12.362 136.819 11.9876 136.985 11.5352 136.985C10.985 136.985 10.5586 136.777 10.2559 136.36C9.94987 135.94 9.79688 135.351 9.79688 134.593V133.714H9.38184C9.06608 133.714 8.81543 133.808 8.62988 133.997C8.44108 134.186 8.34668 134.464 8.34668 134.832C8.34668 135.154 8.42806 135.424 8.59082 135.643C8.75358 135.861 8.95052 135.97 9.18164 135.97V136.878C8.91797 136.878 8.66406 136.785 8.41992 136.6C8.17253 136.411 7.97721 136.157 7.83398 135.838C7.69076 135.516 7.61914 135.162 7.61914 134.778C7.61914 134.17 7.77214 133.693 8.07813 133.348C8.38086 133.003 8.79915 132.824 9.33301 132.811H11.7646C12.2497 132.811 12.6354 132.749 12.9219 132.625H13V133.572ZM12.3115 135.071C12.3115 134.788 12.2383 134.52 12.0918 134.266C11.9453 134.012 11.7549 133.828 11.5205 133.714H10.4365V134.422C10.4365 135.529 10.7604 136.082 11.4082 136.082C11.6914 136.082 11.9128 135.988 12.0723 135.799C12.2318 135.61 12.3115 135.368 12.3115 135.071ZM13 130.413V131.316H5.5V130.413H13ZM12.4775 125.701C12.891 126.053 13.0977 126.569 13.0977 127.249C13.0977 127.812 12.9349 128.242 12.6094 128.538C12.2806 128.831 11.7956 128.979 11.1543 128.982H7.7168V128.079H11.1299C11.9307 128.079 12.3311 127.754 12.3311 127.103C12.3311 126.412 12.0739 125.953 11.5596 125.726H7.7168L7.7168 124.822H13V125.682L12.4775 125.701ZM13.0977 121.253C13.0977 121.969 12.8633 122.552 12.3945 123.001C11.9225 123.45 11.2926 123.675 10.5049 123.675H10.3389C9.81478 123.675 9.34766 123.576 8.9375 123.377C8.52409 123.175 8.20182 122.895 7.9707 122.537C7.73633 122.176 7.61914 121.785 7.61914 121.365C7.61914 120.678 7.84538 120.145 8.29785 119.764C8.75033 119.383 9.39811 119.192 10.2412 119.192H10.6172V122.771C11.138 122.758 11.5596 122.607 11.8818 122.317C12.2008 122.024 12.3604 121.653 12.3604 121.204C12.3604 120.885 12.2952 120.615 12.165 120.394C12.0348 120.172 11.8623 119.979 11.6475 119.812L12.0771 119.261C12.7575 119.703 13.0977 120.368 13.0977 121.253ZM8.36133 121.365C8.36133 121.73 8.49479 122.036 8.76172 122.283C9.02539 122.531 9.39648 122.684 9.875 122.742V120.096H9.80664C9.34766 120.122 8.99284 120.245 8.74219 120.467C8.48828 120.688 8.36133 120.988 8.36133 121.365Z" fill="black"/>
<path d="M5.89062 85.9639L11.6914 83.6396L5.89062 81.3154V80.0996H13V81.0371H10.2314L7.24316 80.9492L13 83.2832V84.001L7.25781 86.3301L10.2314 86.2373H13V87.1748H5.89062V85.9639ZM12.4775 75.3242C12.891 75.6758 13.0977 76.1917 13.0977 76.8721C13.0977 77.4352 12.9349 77.8649 12.6094 78.1611C12.2806 78.4541 11.7956 78.6022 11.1543 78.6055H7.7168V77.7021H11.1299C11.9307 77.7021 12.3311 77.3766 12.3311 76.7256C12.3311 76.0355 12.0739 75.5765 11.5596 75.3486H7.7168V74.4453H13V75.3047L12.4775 75.3242ZM13 72.0869V72.9902H5.5V72.0869H13ZM6.4375 69.4111H7.7168V68.4248H8.41504V69.4111H11.6914C11.903 69.4111 12.0625 69.3672 12.1699 69.2793C12.2741 69.1914 12.3262 69.0417 12.3262 68.8301C12.3262 68.7259 12.3066 68.5827 12.2676 68.4004H13C13.0651 68.638 13.0977 68.8691 13.0977 69.0938C13.0977 69.4974 12.9756 69.8018 12.7314 70.0068C12.4873 70.2119 12.1406 70.3145 11.6914 70.3145H8.41504V71.2764H7.7168V70.3145H6.4375L6.4375 69.4111ZM13 66.3838V67.2871H7.7168V66.3838H13ZM6.31543 67.3604C6.16895 67.3604 6.04525 67.3164 5.94434 67.2285C5.84342 67.1374 5.79297 67.0039 5.79297 66.8281C5.79297 66.6523 5.84342 66.5189 5.94434 66.4277C6.04525 66.3366 6.16895 66.291 6.31543 66.291C6.46191 66.291 6.58398 66.3366 6.68164 66.4277C6.7793 66.5189 6.82813 66.6523 6.82813 66.8281C6.82813 67.0039 6.7793 67.1374 6.68164 67.2285C6.58398 67.3164 6.46191 67.3604 6.31543 67.3604ZM10.417 60.4707C11.221 60.4707 11.8688 60.6546 12.3604 61.0225C12.8519 61.3903 13.0977 61.8883 13.0977 62.5166C13.0977 63.1579 12.8942 63.6624 12.4873 64.0303H15.0313V64.9336H7.7168V64.1084L8.30273 64.0645C7.84701 63.6966 7.61914 63.1855 7.61914 62.5312C7.61914 61.8965 7.8584 61.3952 8.33691 61.0273C8.81543 60.6562 9.48112 60.4707 10.334 60.4707H10.417ZM10.3145 61.374C9.71875 61.374 9.24837 61.501 8.90332 61.7549C8.55827 62.0088 8.38574 62.3571 8.38574 62.7998C8.38574 63.3467 8.62826 63.7568 9.11328 64.0303H11.6377C12.1195 63.7601 12.3604 63.3467 12.3604 62.79C12.3604 62.3571 12.1895 62.0137 11.8477 61.7598C11.5026 61.5026 10.9915 61.374 10.3145 61.374ZM13 58.3369V59.2402H5.5V58.3369H13ZM13.0977 54.6943C13.0977 55.4105 12.8633 55.9932 12.3945 56.4424C11.9225 56.8916 11.2926 57.1162 10.5049 57.1162H10.3389C9.81478 57.1162 9.34766 57.0169 8.9375 56.8184C8.52409 56.6165 8.20182 56.3366 7.9707 55.9785C7.73633 55.6172 7.61914 55.2266 7.61914 54.8066C7.61914 54.1198 7.84538 53.5859 8.29785 53.2051C8.75033 52.8242 9.39811 52.6338 10.2412 52.6338H10.6172V56.2129C11.138 56.1999 11.5596 56.0485 11.8818 55.7588C12.2008 55.4658 12.3604 55.0947 12.3604 54.6455C12.3604 54.3265 12.2952 54.0563 12.165 53.835C12.0348 53.6136 11.8623 53.4199 11.6475 53.2539L12.0771 52.7021C12.7575 53.1449 13.0977 53.8089 13.0977 54.6943ZM8.36133 54.8066C8.36133 55.1712 8.49479 55.4772 8.76172 55.7246C9.02539 55.972 9.39648 56.125 9.875 56.1836V53.5371H9.80664C9.34766 53.5632 8.99284 53.6868 8.74219 53.9082C8.48828 54.1296 8.36133 54.429 8.36133 54.8066ZM11.7744 47.3604L7.7168 46.0518V45.1289L13 47.0234V47.7119L7.7168 49.626V48.7031L11.7744 47.3604ZM13 41.0762C12.8958 41.1283 12.7103 41.1706 12.4434 41.2031C12.8796 41.623 13.0977 42.1243 13.0977 42.707C13.0977 43.2279 12.9512 43.6559 12.6582 43.9912C12.362 44.3232 11.9876 44.4893 11.5352 44.4893C10.985 44.4893 10.5586 44.2809 10.2559 43.8643C9.94987 43.4443 9.79688 42.8551 9.79688 42.0967V41.2178H9.38184C9.06608 41.2178 8.81543 41.3122 8.62988 41.501C8.44108 41.6898 8.34668 41.9681 8.34668 42.3359C8.34668 42.6582 8.42806 42.9284 8.59082 43.1465C8.75358 43.3646 8.95052 43.4736 9.18164 43.4736V44.3818C8.91797 44.3818 8.66406 44.2891 8.41992 44.1035C8.17253 43.9147 7.97721 43.6608 7.83398 43.3418C7.69076 43.0195 7.61914 42.6663 7.61914 42.2822C7.61914 41.6735 7.77214 41.1966 8.07813 40.8516C8.38086 40.5065 8.79915 40.3275 9.33301 40.3145H11.7646C12.2497 40.3145 12.6354 40.2526 12.9219 40.1289H13V41.0762ZM12.3115 42.5752C12.3115 42.292 12.2383 42.0234 12.0918 41.7695C11.9453 41.5156 11.7549 41.3317 11.5205 41.2178H10.4365V41.9258C10.4365 43.0326 10.7604 43.5859 11.4082 43.5859C11.6914 43.5859 11.9128 43.4915 12.0723 43.3027C12.2318 43.1139 12.3115 42.8714 12.3115 42.5752ZM13 37.917V38.8203H5.5V37.917H13ZM12.4775 33.2051C12.891 33.5566 13.0977 34.0726 13.0977 34.7529C13.0977 35.3161 12.9349 35.7458 12.6094 36.042C12.2806 36.335 11.7956 36.4831 11.1543 36.4863H7.7168V35.583H11.1299C11.9307 35.583 12.3311 35.2575 12.3311 34.6064C12.3311 33.9163 12.0739 33.4574 11.5596 33.2295H7.7168V32.3262H13V33.1855L12.4775 33.2051ZM13.0977 28.7568C13.0977 29.473 12.8633 30.0557 12.3945 30.5049C11.9225 30.9541 11.2926 31.1787 10.5049 31.1787H10.3389C9.81478 31.1787 9.34766 31.0794 8.9375 30.8809C8.52409 30.679 8.20182 30.3991 7.9707 30.041C7.73633 29.6797 7.61914 29.2891 7.61914 28.8691C7.61914 28.1823 7.84538 27.6484 8.29785 27.2676C8.75033 26.8867 9.39811 26.6963 10.2412 26.6963H10.6172V30.2754C11.138 30.2624 11.5596 30.111 11.8818 29.8213C12.2008 29.5283 12.3604 29.1572 12.3604 28.708C12.3604 28.389 12.2952 28.1188 12.165 27.8975C12.0348 27.6761 11.8623 27.4824 11.6475 27.3164L12.0771 26.7646C12.7575 27.2074 13.0977 27.8714 13.0977 28.7568ZM8.36133 28.8691C8.36133 29.2337 8.49479 29.5397 8.76172 29.7871C9.02539 30.0345 9.39648 30.1875 9.875 30.2461V27.5996H9.80664C9.34766 27.6257 8.99284 27.7493 8.74219 27.9707C8.48828 28.1921 8.36133 28.4915 8.36133 28.8691Z" fill="black"/>
</svg>
